<?xml version="1.0" encoding="utf-8"?>
<!-- Generator: Adobe Illustrator 27.1.1, SVG Export Plug-In . SVG Version: 6.00 Build 0)  -->
<svg version="1.1" id="Layer_2_00000019677935918098728250000013257150535402111144_"
	 xmlns="http://www.w3.org/2000/svg" xmlns:xlink="http://www.w3.org/1999/xlink" x="0px" y="0px" viewBox="0 0 507.6 308.6"
	 style="enable-background:new 0 0 507.6 308.6;" xml:space="preserve">
<style type="text/css">
	.st0{fill:#FFFFFF;}
</style>
<g id="Layer_1-2">
	<g>
		<g>
			<path class="st0" d="M0,258.1v-1.4c1,0,1.8-0.3,2.2-0.7c0.4-0.5,0.6-1.1,0.6-1.9s0.1-1.7,0.1-2.7V234c0-0.8,0-1.4,0-1.9
				s0.1-1,0.1-1.4c-0.5,0-1,0.1-1.5,0.1c-0.5,0-1,0.1-1.5,0.1v-1.8c1.5,0,3-0.1,4.6-0.1s3.1,0,4.8,0c3.2,0,5.7,0.6,7.5,1.7
				c1.8,1.1,2.7,2.9,2.6,5.4c0,0.9-0.3,1.8-0.8,2.7s-1.3,1.7-2.3,2.4s-2.3,1.2-3.8,1.4v0.1c3,0,5.3,0.7,6.9,2.1
				c1.5,1.4,2.3,3.2,2.3,5.3c0,1.7-0.4,3.1-1.3,4.4c-0.9,1.2-2,2.1-3.5,2.8s-3.1,1-5,1L0,258.1L0,258.1z M6.3,256.5
				c0.4,0,1,0,1.6,0.1s1.2,0,1.7,0h1.1c2.1,0,3.9-0.5,5.2-1.6s2-2.6,2-4.7c0-1.7-0.3-3-1-3.9c-0.7-0.9-1.5-1.6-2.6-2
				c-1.1-0.4-2.3-0.6-3.5-0.6c-0.8,0-1.6,0-2.3,0c-0.7,0-1.3,0.1-2,0.1v9.4c0,0.8,0,1.4,0,1.9C6.4,255.7,6.4,256.1,6.3,256.5
				L6.3,256.5z M6.5,242.2l3-0.1c1.6,0,2.8-0.4,3.7-1s1.6-1.4,2-2.4c0.4-0.9,0.6-1.9,0.6-2.9c0-1.5-0.4-2.6-1-3.4s-1.4-1.3-2.4-1.6
				s-1.9-0.4-2.8-0.4s-1.6,0.1-2,0.4c-0.4,0.2-0.7,0.7-0.9,1.2s-0.2,1.4-0.2,2.4L6.5,242.2L6.5,242.2z"/>
			<path class="st0" d="M33.8,230.4c-0.9,0-1.6,0.2-2,0.6c-0.4,0.4-0.6,0.8-0.7,1.4c-0.1,0.5-0.1,1-0.1,1.4v10.5
				c0,1.6,0.1,3.1,0.3,4.5c0.2,1.4,0.6,2.8,1.2,3.9c0.6,1.2,1.5,2.1,2.6,2.8c1.1,0.7,2.7,1,4.5,1c2,0,3.6-0.5,4.9-1.4
				c1.3-0.9,2.2-2.2,2.8-3.9s0.9-3.6,0.9-5.7l0.1-11.7c0-0.6,0-1.1,0-1.6c0-0.5,0.1-1,0.1-1.4c-0.5,0-1,0.1-1.5,0.1
				c-0.5,0-1,0.1-1.5,0.1v-1.8h7.7v1.4c-1,0-1.8,0.3-2.2,0.7c-0.4,0.4-0.6,1-0.7,1.8s-0.1,1.6-0.1,2.6l-0.1,9.6
				c0,1.8-0.2,3.5-0.6,5.1c-0.4,1.6-1,3.1-1.9,4.4s-2,2.3-3.5,3c-1.4,0.7-3.2,1.1-5.2,1.1c-2.2,0-4.1-0.3-5.6-0.9
				c-1.5-0.6-2.7-1.5-3.6-2.7c-0.9-1.2-1.5-2.8-1.9-4.6s-0.6-4.1-0.6-6.6v-8.4c0-0.7,0-1.6,0.1-2.6c0-1,0.1-1.7,0.1-2.3
				c-0.5,0-1,0.1-1.5,0.1s-1,0-1.5,0.1v-1.8h9.3L33.8,230.4L33.8,230.4z"/>
			<path class="st0" d="M73.1,237.9c-0.1-1.3-0.4-2.6-0.9-3.8c-0.6-1.2-1.4-2.2-2.4-2.9s-2.4-1.1-4-1.1c-1.7,0-3,0.5-3.9,1.4
				s-1.4,2.1-1.4,3.4c0,1.2,0.3,2.1,1,2.9s1.5,1.5,2.6,2.1s2.2,1.2,3.4,1.7c1.1,0.5,2.1,1,3.2,1.5c1.1,0.5,2,1.2,2.9,1.9
				c0.9,0.7,1.5,1.5,2.1,2.5c0.5,1,0.8,2.1,0.8,3.4c0,1.5-0.4,2.9-1.1,4.1c-0.8,1.2-1.9,2.1-3.3,2.8c-1.4,0.7-3.2,1-5.3,1
				c-1.2,0-2.5-0.2-3.9-0.5c-1.3-0.4-2.5-0.9-3.5-1.6l0.2,1.8h-2.2l-0.2-8.8h1.6c0.1,2.4,1,4.3,2.5,5.5s3.4,1.9,5.6,1.9
				c1.1,0,2.1-0.2,3-0.6c0.9-0.4,1.6-1,2.2-1.8c0.5-0.8,0.8-1.7,0.8-2.8c0-1.2-0.3-2.3-1-3.1c-0.7-0.8-1.5-1.6-2.6-2.2
				s-2.2-1.2-3.4-1.7c-1.1-0.5-2.1-1-3.1-1.5c-1-0.5-2-1.1-2.8-1.8s-1.5-1.5-2-2.4c-0.5-0.9-0.8-2.1-0.8-3.4c0-0.7,0.1-1.5,0.4-2.3
				s0.7-1.6,1.3-2.4s1.5-1.4,2.6-1.9c1.1-0.5,2.5-0.7,4.2-0.7c1.1,0,2.2,0.1,3.6,0.4c1.3,0.3,2.5,0.9,3.7,1.7l-0.2-1.8h2.1v9.1
				L73.1,237.9L73.1,237.9z"/>
			<path class="st0" d="M89.7,230.4c-1,0-1.7,0.3-2.1,0.7c-0.4,0.4-0.6,1-0.7,1.8s-0.1,1.6-0.1,2.6v17.6c0,0.8,0,1.4,0,1.9
				c0,0.5-0.1,1-0.1,1.3c0.5,0,1-0.1,1.5-0.1s1-0.1,1.5-0.1v1.8h-9.3v-1.4c1.1-0.1,1.8-0.3,2.2-0.7c0.4-0.4,0.6-1,0.6-1.8
				c0-0.8,0.1-1.6,0.1-2.6v-17.9c0-0.6,0-1.1,0-1.6c0-0.5,0.1-1,0.1-1.4c-0.5,0-1,0.1-1.5,0.1c-0.5,0-1,0.1-1.5,0.1v-1.8h9.3
				L89.7,230.4L89.7,230.4z"/>
			<path class="st0" d="M116.9,258.8l-16.6-22.3c-0.2-0.3-0.5-0.7-0.7-1c-0.2-0.3-0.5-0.6-0.7-1h0l0.1,17.8v2.1c0,0.7,0,1.4-0.1,2
				c0.5,0,1-0.1,1.5-0.1s1-0.1,1.5-0.1v1.8h-7.6v-1.4c0.9,0,1.5-0.2,1.8-0.6c0.4-0.4,0.6-0.8,0.7-1.3s0.2-1,0.2-1.4l0-20v-2.8
				c-0.4,0-0.9,0.1-1.4,0.1c-0.5,0-0.9,0.1-1.4,0.1v-1.8h4.9l15.6,20.8c0.4,0.5,0.7,0.9,1.1,1.4s0.7,0.9,1.1,1.4h0l0-19
				c0-0.6,0-1.1,0-1.6c0-0.5,0.1-1,0.1-1.4c-0.5,0-1,0.1-1.5,0.1s-1,0.1-1.5,0.1v-1.8h7.6v1.4c-1,0-1.7,0.3-2.1,0.7
				c-0.4,0.4-0.6,1-0.6,1.8s0,1.6,0,2.6l-0.1,23.2L116.9,258.8L116.9,258.8z"/>
			<path class="st0" d="M140.3,247.4c0-1.2-0.2-2.1-0.5-2.6c-0.3-0.5-0.9-0.8-1.6-0.9s-1.7-0.1-2.9-0.1l-3,0.1v9.5
				c0,0.8,0,1.4,0,1.9c0,0.5-0.1,1-0.1,1.3l7.9-0.1c1.2,0,2.3-0.2,3.1-0.6c0.9-0.4,1.6-1,2.1-2s0.8-2.2,0.8-3.9h1.4l-0.2,8.1h-21.4
				v-1.4c1.1-0.1,1.8-0.3,2.2-0.7c0.4-0.4,0.6-1,0.6-1.8c0-0.8,0.1-1.6,0.1-2.6v-17.9c0-0.6,0-1.1,0-1.6c0-0.5,0.1-1,0.1-1.4
				c-0.5,0-1,0.1-1.5,0.1c-0.5,0-1,0.1-1.5,0.1v-1.8h20l0.2,7.3h-1.4c0-1.6-0.2-2.9-0.8-3.7s-1.2-1.4-2-1.7
				c-0.9-0.3-1.8-0.4-2.9-0.4l-3.6,0.1c-1,0-1.8,0.2-2.2,0.6s-0.7,0.9-0.8,1.6c-0.1,0.7-0.1,1.6-0.1,2.8v6.6l7.8,0l-0.3-3.6h1.8v8.7
				L140.3,247.4L140.3,247.4z"/>
			<path class="st0" d="M168,237.9c-0.1-1.3-0.4-2.6-0.9-3.8s-1.4-2.2-2.4-2.9s-2.4-1.1-4-1.1c-1.7,0-3,0.5-3.9,1.4
				s-1.4,2.1-1.4,3.4c0,1.2,0.3,2.1,1,2.9s1.5,1.5,2.6,2.1s2.2,1.2,3.4,1.7c1.1,0.5,2.1,1,3.2,1.5c1.1,0.5,2,1.2,2.9,1.9
				c0.9,0.7,1.5,1.5,2.1,2.5c0.5,1,0.8,2.1,0.8,3.4c0,1.5-0.4,2.9-1.1,4.1c-0.8,1.2-1.9,2.1-3.3,2.8c-1.4,0.7-3.2,1-5.3,1
				c-1.2,0-2.5-0.2-3.9-0.5c-1.3-0.4-2.5-0.9-3.5-1.6l0.2,1.8h-2.2l-0.2-8.8h1.6c0.1,2.4,1,4.3,2.5,5.5s3.4,1.9,5.6,1.9
				c1.1,0,2.1-0.2,3-0.6s1.6-1,2.2-1.8c0.5-0.8,0.8-1.7,0.8-2.8c0-1.2-0.3-2.3-1-3.1c-0.7-0.8-1.5-1.6-2.6-2.2s-2.2-1.2-3.4-1.7
				c-1.1-0.5-2.1-1-3.1-1.5c-1-0.5-2-1.1-2.8-1.8s-1.5-1.5-2-2.4c-0.5-0.9-0.8-2.1-0.8-3.4c0-0.7,0.1-1.5,0.4-2.3s0.7-1.6,1.3-2.4
				s1.5-1.4,2.6-1.9c1.1-0.5,2.5-0.7,4.2-0.7c1.1,0,2.2,0.1,3.6,0.4c1.3,0.3,2.5,0.9,3.7,1.7l-0.2-1.8h2.1v9.1L168,237.9L168,237.9z
				"/>
			<path class="st0" d="M191.6,237.9c-0.1-1.3-0.4-2.6-0.9-3.8s-1.4-2.2-2.4-2.9s-2.4-1.1-4-1.1c-1.7,0-3,0.5-3.9,1.4
				s-1.4,2.1-1.4,3.4c0,1.2,0.3,2.1,1,2.9s1.5,1.5,2.6,2.1s2.2,1.2,3.4,1.7c1.1,0.5,2.1,1,3.2,1.5c1.1,0.5,2,1.2,2.9,1.9
				c0.9,0.7,1.5,1.5,2.1,2.5c0.5,1,0.8,2.1,0.8,3.4c0,1.5-0.4,2.9-1.1,4.1c-0.8,1.2-1.9,2.1-3.3,2.8c-1.4,0.7-3.2,1-5.3,1
				c-1.2,0-2.5-0.2-3.9-0.5c-1.3-0.4-2.5-0.9-3.5-1.6l0.2,1.8h-2.2l-0.2-8.8h1.6c0.1,2.4,1,4.3,2.5,5.5s3.4,1.9,5.6,1.9
				c1.1,0,2.1-0.2,3-0.6s1.6-1,2.2-1.8c0.5-0.8,0.8-1.7,0.8-2.8c0-1.2-0.3-2.3-1-3.1c-0.7-0.8-1.5-1.6-2.6-2.2s-2.2-1.2-3.4-1.7
				c-1.1-0.5-2.1-1-3.1-1.5c-1-0.5-2-1.1-2.8-1.8s-1.5-1.5-2-2.4c-0.5-0.9-0.8-2.1-0.8-3.4c0-0.7,0.1-1.5,0.4-2.3s0.7-1.6,1.3-2.4
				s1.5-1.4,2.6-1.9c1.1-0.5,2.5-0.7,4.2-0.7c1.1,0,2.2,0.1,3.6,0.4c1.3,0.3,2.5,0.9,3.7,1.7l-0.2-1.8h2.1v9.1L191.6,237.9
				L191.6,237.9z"/>
			<path class="st0" d="M225.4,258.6c-1.2-2.8-2.4-5.5-3.7-8.3s-2.5-5.5-3.6-8.4c-0.4-0.9-0.8-1.8-1.1-2.7s-0.7-1.8-1.1-2.7
				s-0.7-1.8-1.1-2.7c0,0.3,0,0.6,0,0.9c0,0.3,0,0.6,0,0.9c0,1-0.1,2.2-0.1,3.6c0,1.4-0.1,2.9-0.1,4.5s-0.1,3.2-0.1,4.8
				s-0.1,3.1-0.1,4.5c0,0.6-0.1,1.2-0.1,1.8s-0.1,1.2-0.1,1.7c0.5,0,1-0.1,1.6-0.1c0.5,0,1-0.1,1.6-0.1v1.8h-7.9v-1.4
				c0.9,0,1.5-0.2,1.9-0.6s0.7-0.8,0.8-1.4s0.2-1.2,0.2-1.9l0.8-18.9c0-0.6,0.1-1.1,0.1-1.7s0-1.1,0.1-1.6c-0.5,0-1,0.1-1.5,0.1
				s-1,0-1.5,0.1v-1.8h6.4l7.1,16.5c0.4,0.8,0.7,1.7,1.1,2.5c0.4,0.8,0.7,1.7,1.1,2.5s0.7,1.7,1.1,2.5h0.1c0.3-0.8,0.7-1.6,1.1-2.7
				s0.8-1.9,1-2.7c1.2-3.1,2.5-6.1,3.8-9.2c1.3-3.1,2.6-6.2,3.9-9.5h6.1v1.4c-0.7,0-1.3,0.1-1.7,0.4c-0.4,0.3-0.8,0.8-0.9,1.4
				c-0.2,0.7-0.3,1.6-0.2,2.7l1.1,18.9c0.1,0.5,0.1,0.9,0.1,1.4v1.2c0.5,0,1,0,1.5-0.1c0.5,0,1,0,1.5-0.1v1.8h-9.3v-1.4
				c0.9,0,1.5-0.2,1.9-0.6c0.4-0.4,0.7-0.9,0.8-1.7s0.1-1.6,0.1-2.7l-0.8-13.7c0-0.4-0.1-0.9-0.1-1.3c0-0.4-0.1-0.9-0.1-1.3
				c0-0.4-0.1-0.9-0.1-1.3c-0.1,0.2-0.2,0.4-0.3,0.6s-0.2,0.5-0.3,0.7l-9.3,23.1L225.4,258.6L225.4,258.6z"/>
			<path class="st0" d="M245.3,258.1v-1.4c0.8,0,1.5-0.2,1.9-0.7s0.8-1.1,1.1-1.8c0.3-0.8,0.6-1.7,1-2.7l8.6-23.3h1l9.3,23.6
				c0.2,0.6,0.5,1.3,0.8,2.2s0.4,1.7,0.3,2.3c0.5,0,0.9-0.1,1.4-0.1c0.5,0,0.9-0.1,1.4-0.1v1.8h-9.5v-1.4c1,0,1.7-0.3,2.1-0.7
				c0.3-0.4,0.5-1,0.4-1.6s-0.2-1.2-0.4-1.7l-1.5-3.9l-10.8,0.2l-1.4,4.4c-0.2,0.7-0.4,1.2-0.5,1.6c-0.1,0.4-0.3,0.8-0.5,1.3
				c0.6,0,1.1-0.1,1.6-0.1s1.1-0.1,1.6-0.1v1.8L245.3,258.1L245.3,258.1z M252.9,247.4h9.6l-3-7.9c-0.3-0.9-0.6-1.7-0.9-2.6
				c-0.3-0.8-0.6-1.7-0.9-2.6h-0.1c-0.3,0.8-0.6,1.6-0.9,2.3s-0.6,1.6-0.9,2.4L252.9,247.4L252.9,247.4z"/>
			<path class="st0" d="M296.5,258.8L280,236.6c-0.2-0.3-0.5-0.7-0.7-1c-0.2-0.3-0.5-0.6-0.7-1h0l0.1,17.8v2.1c0,0.7,0,1.4-0.1,2
				c0.5,0,1-0.1,1.5-0.1s1-0.1,1.5-0.1v1.8h-7.6v-1.4c0.9,0,1.5-0.2,1.9-0.6c0.4-0.4,0.6-0.8,0.7-1.3c0.1-0.5,0.2-1,0.2-1.4l0-20
				v-2.8c-0.4,0-0.9,0.1-1.4,0.1c-0.5,0-0.9,0.1-1.4,0.1v-1.8h4.9l15.6,20.8c0.4,0.5,0.7,0.9,1.1,1.4s0.7,0.9,1.1,1.4h0l0-19
				c0-0.6,0-1.1,0-1.6c0-0.5,0.1-1,0.1-1.4c-0.5,0-1,0.1-1.5,0.1s-1,0.1-1.5,0.1v-1.8h7.6v1.4c-1,0-1.7,0.3-2.1,0.7
				c-0.4,0.4-0.6,1-0.6,1.8s0,1.6,0,2.6l-0.1,23.2L296.5,258.8L296.5,258.8z"/>
			<path class="st0" d="M302.9,258.1v-1.4c0.8,0,1.5-0.2,1.9-0.7s0.8-1.1,1.1-1.8c0.3-0.8,0.6-1.7,1-2.7l8.6-23.3h1l9.3,23.6
				c0.2,0.6,0.5,1.3,0.8,2.2s0.4,1.7,0.3,2.3c0.5,0,0.9-0.1,1.4-0.1c0.5,0,0.9-0.1,1.4-0.1v1.8h-9.5v-1.4c1,0,1.7-0.3,2.1-0.7
				c0.3-0.4,0.5-1,0.4-1.6s-0.2-1.2-0.4-1.7l-1.5-3.9l-10.8,0.2l-1.5,4.4c-0.2,0.7-0.4,1.2-0.5,1.6s-0.3,0.8-0.5,1.3
				c0.5,0,1.1-0.1,1.6-0.1s1.1-0.1,1.6-0.1v1.8L302.9,258.1L302.9,258.1z M310.6,247.4h9.6l-3-7.9c-0.3-0.9-0.6-1.7-0.9-2.6
				c-0.3-0.8-0.6-1.7-0.9-2.6h-0.1c-0.3,0.8-0.6,1.6-0.9,2.3s-0.6,1.6-0.9,2.4L310.6,247.4L310.6,247.4z"/>
			<path class="st0" d="M345,258.8c-2.8,0-5.2-0.6-7.4-1.7s-3.8-2.8-5-5c-1.2-2.2-1.8-4.8-1.8-7.8c0-2,0.3-3.9,0.9-5.8
				s1.5-3.6,2.7-5.1c1.2-1.5,2.7-2.7,4.5-3.6c1.8-0.9,3.9-1.4,6.3-1.4c1,0,2,0.1,3,0.3c1,0.2,2,0.4,3,0.8c1,0.4,1.8,0.8,2.6,1.2
				l-0.2-2h2.3v9.5h-1.5c-0.1-1.7-0.6-3.2-1.4-4.4s-1.9-2.1-3.2-2.8s-2.8-0.9-4.4-0.9c-1.5,0-2.9,0.3-4.1,1
				c-1.3,0.6-2.4,1.6-3.4,2.7c-1,1.2-1.8,2.6-2.3,4.2c-0.5,1.6-0.8,3.4-0.8,5.3c0,2.6,0.5,4.9,1.4,7s2.2,3.6,3.9,4.8
				c1.7,1.2,3.6,1.7,5.8,1.7c0.8,0,1.5-0.1,2.4-0.2c0.8-0.1,1.6-0.4,2.5-0.7s1.6-0.7,2.3-1.2v-9.1c-0.5,0-1,0.1-1.5,0.1
				c-0.5,0-1,0.1-1.5,0.1V244h9.4v1.4c-0.8,0-1.4,0.2-1.8,0.6c-0.4,0.4-0.7,0.9-0.9,1.4c-0.2,0.6-0.3,1.1-0.3,1.7c0,0.5,0,0.9,0,1.2
				v6.3h-1.1c-0.4,0-1,0.1-1.8,0.2s-1.7,0.4-2.7,0.8c-0.9,0.3-1.9,0.6-3,0.8C347,258.7,345.9,258.8,345,258.8L345,258.8z"/>
			<path class="st0" d="M377.3,247.4c0-1.2-0.2-2.1-0.5-2.6c-0.3-0.5-0.9-0.8-1.6-0.9s-1.7-0.1-2.9-0.1l-3,0.1v9.5
				c0,0.8,0,1.4,0,1.9c0,0.5,0,1-0.1,1.3l7.9-0.1c1.2,0,2.3-0.2,3.1-0.6c0.9-0.4,1.6-1,2.1-2s0.8-2.2,0.8-3.9h1.4l-0.2,8.1h-21.4
				v-1.4c1-0.1,1.8-0.3,2.2-0.7c0.4-0.4,0.6-1,0.6-1.8c0-0.8,0.1-1.6,0.1-2.6v-17.9c0-0.6,0-1.1,0-1.6c0-0.5,0.1-1,0.1-1.4
				c-0.5,0-1,0.1-1.5,0.1c-0.5,0-1,0.1-1.5,0.1v-1.8h20l0.2,7.3h-1.4c0-1.6-0.2-2.9-0.8-3.7s-1.2-1.4-2-1.7
				c-0.9-0.3-1.8-0.4-2.9-0.4l-3.6,0.1c-1,0-1.8,0.2-2.2,0.6s-0.7,0.9-0.8,1.6s-0.1,1.6-0.1,2.8v6.6l7.8,0l-0.3-3.6h1.8v8.7
				L377.3,247.4L377.3,247.4z"/>
			<path class="st0" d="M404.3,258.6c-1.2-2.8-2.5-5.5-3.7-8.3s-2.5-5.5-3.6-8.4c-0.4-0.9-0.8-1.8-1.1-2.7c-0.4-0.9-0.7-1.8-1.1-2.7
				c-0.4-0.9-0.7-1.8-1.1-2.7c0,0.3,0,0.6,0,0.9c0,0.3,0,0.6,0,0.9c0,1-0.1,2.2-0.1,3.6c0,1.4-0.1,2.9-0.1,4.5s-0.1,3.2-0.1,4.8
				s-0.1,3.1-0.1,4.5c0,0.6,0,1.2-0.1,1.8s0,1.2-0.1,1.7c0.5,0,1-0.1,1.6-0.1c0.5,0,1-0.1,1.6-0.1v1.8h-7.9v-1.4
				c0.9,0,1.5-0.2,1.9-0.6c0.4-0.4,0.7-0.8,0.8-1.4s0.2-1.2,0.2-1.9l0.8-18.9c0-0.6,0-1.1,0.1-1.7s0-1.1,0.1-1.6
				c-0.5,0-1,0.1-1.5,0.1s-1,0-1.5,0.1v-1.8h6.4l7.1,16.5c0.4,0.8,0.7,1.7,1.1,2.5s0.7,1.7,1.1,2.5s0.7,1.7,1.1,2.5h0.1
				c0.3-0.8,0.7-1.6,1.1-2.7c0.4-1,0.8-1.9,1-2.7c1.2-3.1,2.5-6.1,3.8-9.2c1.3-3.1,2.6-6.2,3.9-9.5h6.1v1.4c-0.7,0-1.3,0.1-1.7,0.4
				c-0.4,0.3-0.8,0.8-1,1.4c-0.2,0.7-0.3,1.6-0.2,2.7l1.1,18.9c0.1,0.5,0.1,0.9,0.1,1.4v1.2c0.5,0,1,0,1.5-0.1c0.5,0,1,0,1.5-0.1
				v1.8h-9.3v-1.4c0.9,0,1.5-0.2,1.9-0.6c0.4-0.4,0.7-0.9,0.8-1.7c0.1-0.7,0.1-1.6,0.1-2.7l-0.8-13.7c0-0.4-0.1-0.9-0.1-1.3
				c0-0.4-0.1-0.9-0.1-1.3c0-0.4-0.1-0.9-0.1-1.3c-0.1,0.2-0.2,0.4-0.3,0.6c-0.1,0.2-0.2,0.5-0.3,0.7l-9.3,23.1L404.3,258.6
				L404.3,258.6z"/>
			<path class="st0" d="M441.2,247.4c0-1.2-0.2-2.1-0.5-2.6c-0.3-0.5-0.9-0.8-1.6-0.9s-1.7-0.1-2.9-0.1l-3,0.1v9.5
				c0,0.8,0,1.4,0,1.9c0,0.5,0,1-0.1,1.3l7.9-0.1c1.2,0,2.3-0.2,3.1-0.6c0.9-0.4,1.6-1,2.1-2s0.8-2.2,0.8-3.9h1.4l-0.2,8.1h-21.4
				v-1.4c1-0.1,1.8-0.3,2.2-0.7c0.4-0.4,0.6-1,0.6-1.8c0-0.8,0.1-1.6,0.1-2.6v-17.9c0-0.6,0-1.1,0-1.6c0-0.5,0.1-1,0.1-1.4
				c-0.5,0-1,0.1-1.5,0.1c-0.5,0-1,0.1-1.5,0.1v-1.8h20l0.2,7.3h-1.4c0-1.6-0.2-2.9-0.8-3.7s-1.2-1.4-2-1.7
				c-0.9-0.3-1.8-0.4-2.9-0.4l-3.6,0.1c-1,0-1.8,0.2-2.2,0.6s-0.7,0.9-0.8,1.6s-0.1,1.6-0.1,2.8v6.6l7.8,0l-0.3-3.6h1.8v8.7
				L441.2,247.4L441.2,247.4z"/>
			<path class="st0" d="M475.3,258.8l-16.6-22.3c-0.2-0.3-0.5-0.7-0.7-1c-0.2-0.3-0.5-0.6-0.7-1h0l0.1,17.8v2.1c0,0.7,0,1.4-0.1,2
				c0.5,0,1-0.1,1.5-0.1s1-0.1,1.5-0.1v1.8h-7.6v-1.4c0.9,0,1.5-0.2,1.9-0.6c0.4-0.4,0.6-0.8,0.7-1.3c0.1-0.5,0.2-1,0.2-1.4l0-20
				v-2.8c-0.4,0-0.9,0.1-1.4,0.1c-0.5,0-0.9,0.1-1.4,0.1v-1.8h4.9l15.6,20.8c0.4,0.5,0.7,0.9,1.1,1.4s0.7,0.9,1.1,1.4h0l0-19
				c0-0.6,0-1.1,0-1.6c0-0.5,0.1-1,0.1-1.4c-0.5,0-1,0.1-1.5,0.1s-1,0.1-1.5,0.1v-1.8h7.6v1.4c-1,0-1.7,0.3-2.1,0.7
				c-0.4,0.4-0.6,1-0.6,1.8s0,1.6,0,2.6l-0.1,23.2L475.3,258.8L475.3,258.8z"/>
			<path class="st0" d="M506,237.8c0-1.6-0.2-3-0.5-4.1s-0.8-1.9-1.6-2.4s-1.9-0.8-3.3-0.8h-3.5l0,22.6c0,0.8,0,1.4,0,1.9
				c0,0.5,0,1-0.1,1.3c0.6,0,1.2-0.1,1.7-0.1c0.6,0,1.1-0.1,1.7-0.1v1.8h-9.8v-1.4c1-0.1,1.8-0.3,2.1-0.8c0.4-0.4,0.6-1,0.6-1.8
				c0-0.8,0.1-1.6,0.1-2.6l0-21.1l-4.3,0c-1.8,0-3,0.6-3.7,1.8c-0.7,1.2-1.1,3-1.1,5.4h-1.5l0.2-8.8h24.2l0.2,8.8L506,237.8
				L506,237.8z"/>
			<path class="st0" d="M154.9,280.3c-1,0-1.7,0.3-2.1,0.7c-0.4,0.4-0.6,1-0.7,1.8s-0.1,1.6-0.1,2.6V303c0,0.8,0,1.4,0,1.9
				c0,0.5-0.1,1-0.1,1.4c0.5,0,1-0.1,1.5-0.1s1-0.1,1.5-0.1v1.8h-9.3v-1.4c1.1-0.1,1.8-0.3,2.2-0.7c0.4-0.4,0.6-1,0.6-1.8
				c0-0.8,0.1-1.6,0.1-2.6v-17.9c0-0.5,0-1.1,0-1.6s0.1-1,0.1-1.4c-0.5,0-1,0.1-1.5,0.1c-0.5,0-1,0.1-1.5,0.1v-1.8h9.3L154.9,280.3
				L154.9,280.3z"/>
			<path class="st0" d="M182.1,308.6l-16.6-22.3c-0.2-0.3-0.5-0.7-0.7-1c-0.2-0.3-0.5-0.6-0.7-1h0l0.1,17.8v2.1c0,0.7,0,1.4-0.1,2
				c0.5,0,1-0.1,1.5-0.1s1-0.1,1.5-0.1v1.8h-7.6v-1.4c0.9,0,1.5-0.2,1.9-0.6c0.4-0.4,0.6-0.8,0.7-1.3c0.1-0.5,0.2-1,0.2-1.4l0-20
				v-2.8c-0.4,0-0.9,0.1-1.4,0.1c-0.5,0-0.9,0.1-1.4,0.1v-1.8h4.9l15.6,20.8c0.4,0.5,0.7,0.9,1.1,1.4c0.4,0.5,0.7,0.9,1.1,1.4h0
				l0-19c0-0.5,0-1.1,0-1.6s0.1-1,0.1-1.4c-0.5,0-1,0.1-1.5,0.1s-1,0.1-1.5,0.1v-1.8h7.6v1.4c-1,0-1.7,0.3-2.1,0.7
				c-0.4,0.4-0.6,1-0.6,1.8s0,1.6,0,2.6l-0.1,23.2L182.1,308.6L182.1,308.6z"/>
			<path class="st0" d="M207.4,287.7c-0.1-1.3-0.4-2.6-0.9-3.8s-1.4-2.2-2.4-2.9s-2.4-1.1-4-1.1c-1.7,0-3,0.5-3.9,1.5
				s-1.4,2.1-1.4,3.4c0,1.2,0.3,2.1,1,2.9s1.5,1.5,2.6,2.1c1.1,0.6,2.2,1.2,3.4,1.7c1.1,0.5,2.1,1,3.2,1.5c1.1,0.5,2,1.2,2.9,1.9
				c0.9,0.7,1.5,1.5,2.1,2.5c0.5,1,0.8,2.1,0.8,3.4c0,1.5-0.4,2.9-1.1,4.1s-1.9,2.1-3.3,2.8c-1.4,0.7-3.2,1-5.3,1
				c-1.2,0-2.5-0.2-3.9-0.5c-1.3-0.4-2.5-0.9-3.5-1.6l0.2,1.8h-2.2l-0.2-8.8h1.6c0.1,2.4,1,4.3,2.5,5.5s3.4,1.9,5.6,1.9
				c1.1,0,2.1-0.2,3-0.6s1.6-1,2.2-1.8c0.5-0.8,0.8-1.7,0.8-2.8c0-1.2-0.3-2.3-1-3.1c-0.7-0.8-1.5-1.5-2.6-2.2
				c-1.1-0.6-2.2-1.2-3.4-1.7c-1.1-0.5-2.1-1-3.1-1.5c-1-0.5-2-1.1-2.8-1.8s-1.5-1.5-2-2.4s-0.8-2.1-0.8-3.4c0-0.7,0.1-1.5,0.4-2.3
				c0.2-0.8,0.7-1.6,1.3-2.4s1.5-1.4,2.6-1.9c1.1-0.5,2.5-0.7,4.2-0.7c1.1,0,2.2,0.1,3.6,0.4c1.3,0.3,2.5,0.9,3.7,1.7l-0.2-1.8h2.1
				v9.1L207.4,287.7L207.4,287.7z"/>
			<path class="st0" d="M236.4,287.7c0-1.6-0.2-3-0.5-4.1c-0.3-1.1-0.8-1.9-1.6-2.4c-0.8-0.5-1.9-0.8-3.3-0.8h-3.5l0,22.6
				c0,0.8,0,1.4,0,1.9c0,0.5-0.1,1-0.1,1.4c0.6,0,1.2-0.1,1.7-0.1c0.6,0,1.1-0.1,1.7-0.1v1.8H221v-1.4c1.1-0.1,1.8-0.3,2.1-0.8
				c0.4-0.4,0.6-1,0.6-1.8c0-0.8,0.1-1.6,0.1-2.5l0-21l-4.3,0c-1.8,0-3,0.6-3.7,1.8c-0.7,1.2-1.1,3-1.1,5.4h-1.5l0.2-8.8h24.2
				l0.2,8.8L236.4,287.7L236.4,287.7z"/>
			<path class="st0" d="M250.5,280.3c-1,0-1.7,0.3-2.1,0.7c-0.4,0.4-0.6,1-0.7,1.8s-0.1,1.6-0.1,2.6V303c0,0.8,0,1.4,0,1.9
				c0,0.5-0.1,1-0.1,1.4c0.5,0,1-0.1,1.5-0.1s1-0.1,1.5-0.1v1.8h-9.3v-1.4c1.1-0.1,1.8-0.3,2.2-0.7c0.4-0.4,0.6-1,0.6-1.8
				c0-0.8,0.1-1.6,0.1-2.6v-17.9c0-0.5,0-1.1,0-1.6s0.1-1,0.1-1.4c-0.5,0-1,0.1-1.5,0.1c-0.5,0-1,0.1-1.5,0.1v-1.8h9.3L250.5,280.3
				L250.5,280.3z"/>
			<path class="st0" d="M276.9,287.7c0-1.6-0.2-3-0.5-4.1c-0.3-1.1-0.8-1.9-1.6-2.4c-0.8-0.5-1.9-0.8-3.3-0.8h-3.5l0,22.6
				c0,0.8,0,1.4,0,1.9c0,0.5,0,1-0.1,1.4c0.6,0,1.2-0.1,1.7-0.1c0.6,0,1.1-0.1,1.7-0.1v1.8h-9.8v-1.4c1-0.1,1.8-0.3,2.1-0.8
				c0.4-0.4,0.6-1,0.6-1.8c0-0.8,0.1-1.6,0.1-2.5l0-21l-4.3,0c-1.8,0-3,0.6-3.7,1.8c-0.7,1.2-1.1,3-1.1,5.4h-1.5l0.2-8.8h24.2
				l0.2,8.8L276.9,287.7L276.9,287.7z"/>
			<path class="st0" d="M290,280.3c-0.9,0-1.6,0.2-2,0.6c-0.4,0.4-0.6,0.8-0.7,1.4c-0.1,0.5-0.1,1-0.1,1.4V294c0,1.5,0.1,3,0.3,4.5
				c0.2,1.5,0.6,2.8,1.2,3.9s1.5,2.1,2.6,2.8s2.6,1,4.5,1c2,0,3.6-0.5,4.9-1.4s2.2-2.2,2.8-3.9s0.9-3.6,0.9-5.7l0.1-11.7
				c0-0.5,0-1.1,0-1.6s0.1-1,0.1-1.4c-0.5,0-1,0.1-1.5,0.1c-0.5,0-1,0.1-1.5,0.1v-1.8h7.7v1.4c-1,0-1.8,0.3-2.2,0.7
				c-0.4,0.4-0.6,1-0.7,1.8s-0.1,1.6-0.1,2.6l-0.1,9.6c0,1.8-0.2,3.5-0.6,5.1c-0.4,1.6-1,3.1-1.9,4.4c-0.9,1.3-2,2.3-3.5,3
				c-1.4,0.7-3.2,1.1-5.2,1.1c-2.2,0-4.1-0.3-5.6-0.9s-2.7-1.5-3.6-2.7s-1.5-2.8-1.9-4.6c-0.4-1.9-0.6-4.1-0.6-6.6v-8.4
				c0-0.7,0-1.6,0.1-2.5c0-1,0.1-1.7,0.1-2.3c-0.5,0-1,0-1.5,0.1s-1,0-1.5,0.1v-1.8h9.3L290,280.3L290,280.3z"/>
			<path class="st0" d="M334.7,287.7c0-1.6-0.2-3-0.5-4.1c-0.3-1.1-0.8-1.9-1.6-2.4c-0.8-0.5-1.9-0.8-3.3-0.8h-3.5l0,22.6
				c0,0.8,0,1.4,0,1.9c0,0.5,0,1-0.1,1.4c0.6,0,1.2-0.1,1.7-0.1c0.6,0,1.1-0.1,1.7-0.1v1.8h-9.8v-1.4c1-0.1,1.8-0.3,2.1-0.8
				c0.4-0.4,0.6-1,0.6-1.8c0-0.8,0.1-1.6,0.1-2.5l0-21l-4.3,0c-1.8,0-3,0.6-3.7,1.8c-0.7,1.2-1.1,3-1.1,5.4h-1.5l0.2-8.8H336
				l0.2,8.8L334.7,287.7L334.7,287.7z"/>
			<path class="st0" d="M353.9,297.2c0-1.2-0.2-2.1-0.5-2.6c-0.3-0.5-0.9-0.8-1.6-1s-1.7-0.1-2.9-0.1l-3,0.1v9.5c0,0.8,0,1.4,0,1.9
				c0,0.5,0,1-0.1,1.3l7.9-0.1c1.2,0,2.3-0.2,3.1-0.6c0.9-0.4,1.6-1,2.1-2s0.8-2.2,0.8-3.9h1.4l-0.2,8.1h-21.4v-1.4
				c1-0.1,1.8-0.3,2.2-0.7c0.4-0.4,0.6-1,0.6-1.8c0-0.8,0.1-1.6,0.1-2.6v-17.9c0-0.5,0-1.1,0-1.6s0.1-1,0.1-1.4
				c-0.5,0-1,0.1-1.5,0.1c-0.5,0-1,0.1-1.5,0.1v-1.8h20l0.2,7.3h-1.4c0-1.6-0.2-2.9-0.8-3.7s-1.2-1.4-2-1.7
				c-0.9-0.3-1.8-0.4-2.9-0.4l-3.6,0.1c-1,0-1.8,0.2-2.2,0.6s-0.7,0.9-0.8,1.6s-0.1,1.6-0.1,2.8v6.6l7.8,0l-0.3-3.6h1.8v8.7
				L353.9,297.2L353.9,297.2z"/>
		</g>
		<g>
			<path class="st0" d="M244.3,77.2l-50.5-35.3V16.2c3.1,0,6.2,0,9.3,0l40.6,58.1l0,0C243.8,75.4,244,76.3,244.3,77.2
				C244.6,77.8,244.6,77.8,244.3,77.2L244.3,77.2z"/>
			<path class="st0" d="M244.9,70.1c-0.5,0.8-0.9,1.8-1,2.8l-26.2-56.1c1.6,0.1,3.2,0.2,4.8,0.4c6.1,0.5,12.1,1.3,18,2.6
				C240.6,19.7,244.9,70.1,244.9,70.1z"/>
			<path class="st0" d="M246.9,80.7l-53-4.6V54.7L245,78.5C245.5,79.4,246.1,80.1,246.9,80.7z"/>
			<path class="st0" d="M270.9,18.3l-22.8,48.7h0c-0.9,0.5-1.6,1.1-2.3,1.8l4.1-46.7c0.2,0.1,0.4,0.1,0.7,0.2c0.5,0.2,1,0.2,1.4,0.2
				s1-0.1,1.4-0.2C259.2,20.6,265,19.3,270.9,18.3z"/>
			<path class="st0" d="M310.2,16.2v9.4l-57.8,40.5h0c-0.1,0-0.2,0-0.3,0c-0.9,0-1.8,0.2-2.6,0.4l34.7-49.6
				C292.8,16.3,301.5,16.3,310.2,16.2L310.2,16.2z"/>
			<path class="st0" d="M310.2,40v22.7l-53.7,4.7h0c-0.8-0.5-1.7-0.9-2.7-1.1L310.2,40z"/>
			<path class="st0" d="M257.6,68.3c1.6,1.5,2.6,3.7,2.6,6.1c0,3.2-1.8,6-4.5,7.3c-0.6-1.7-1-3.3-1.3-4.9c0.6-0.6,1-1.5,1-2.4
				c0-1.9-1.6-3.4-3.4-3.4s-3.4,1.6-3.4,3.4c0,0.9,0.4,1.8,1,2.4c-0.2,1.3-0.6,2.7-1,4.1c-0.1,0.2-0.1,0.4-0.2,0.6l-0.3,0l-54.2,4.7
				v30.3c0,8,3.6,15.7,9.1,22.6c5.4,6.9,12.7,13.2,20,18.5c7.3,5.3,14.6,9.5,20,12.5s9.1,4.6,9.1,4.6s3.6-1.6,9.1-4.6
				c5.5-2.9,12.7-7.2,20-12.5c7.3-5.2,14.5-11.5,20-18.5c5.5-7,9.1-14.6,9.1-22.6V72.9L257.6,68.3L257.6,68.3z M252.3,151.7
				C252.3,151.7,252.3,151.7,252.3,151.7C252.2,151.7,252.2,151.7,252.3,151.7c-8.9-1.8-8.3-4.9-8.3-4.9h16.5
				C260.5,146.8,261.2,149.9,252.3,151.7z M264.1,145.1h-24.4v-9.8h24.4V145.1z M261.1,134.2h-18.2c0,0,2.4-21.1-10.2-28.8
				c10.2-9,17.8-21.9,18.1-31.1v36.5c-1.1,0.5-1.9,1.6-1.9,2.9c0,1.7,1.4,3.2,3.1,3.2s3.1-1.4,3.1-3.2c0-1.3-0.8-2.4-1.9-2.9V74.3
				c0.3,9.1,7.9,22.1,18.1,31.1C258.7,113.1,261.1,134.2,261.1,134.2L261.1,134.2z"/>
			<path class="st0" d="M248,81.5c0.1,0.1,0.1,0.1,0.2,0.1c0,0,0-0.1,0-0.1L248,81.5z"/>
			<path class="st0" d="M310.2,0v10.8c-7.4,0-14.7,0-22,0.4c-4.9,0.2-9.7,0.6-14.6,1.3l0,0c-6.8,0.9-13.5,2.3-20.1,4.5
				c-0.5,0.1-1,0.2-1.4,0.2s-1-0.1-1.4-0.2c-0.1,0-0.1,0-0.2-0.1c-3.4-1.1-6.8-2-10.3-2.8c-5.8-1.2-11.6-2-17.5-2.5
				c-2.5-0.2-5-0.4-7.4-0.5c-2.2-0.1-4.3-0.2-6.5-0.2c-4.9-0.1-9.8-0.1-14.8-0.1V0c9.6,0,19.2,0.1,28.7,0.9
				c5.6,0.5,11.1,1.2,16.5,2.3c3.9,0.8,7.7,1.8,11.4,3c0.2,0.1,0.5,0.1,0.7,0.2c0.2,0,0.5,0.1,0.8,0.1c0.5,0,1-0.1,1.4-0.2
				c9.2-3,18.5-4.6,28-5.4C290.9,0,300.5,0,310.2,0L310.2,0z"/>
		</g>
		<g>
			<path class="st0" d="M326,148.7c-12.5,6-25.3,10.9-38.3,14.2l5.9,1c3.1,0.6,6.2,0.9,9.4,1.2l4.8,0.5c1.6,0.2,3.2,0.2,4.8,0.3
				l5.3,13.7l0.9,2.2l4.9-1.9c1.6-0.6,3.2-1.3,4.8-2l9.5-4.3l-3.3-1.2c-2.7-1-5.3-2-8-3c-2.6-1-5.2-2-7.7-3.2
				c1.1-2.3,2.1-4.8,3.1-7.1s1.9-4.8,2.8-7.1L326,148.7L326,148.7z"/>
			<path class="st0" d="M234.8,187.4c-0.2-0.3-0.5-0.6-0.8-0.8c-0.3-0.2-0.7-0.3-1.1-0.3c-0.2,0-0.4,0-0.6,0
				c-0.2,0.1-0.4,0.2-0.5,0.4c-0.1,0.2-0.2,0.6-0.3,1.2c-0.2,1.3-0.2,2-0.4,3.3c0.5,0.1,0.7,0.1,1.2,0.1c0.6,0.1,1.1,0,1.5-0.2
				s0.7-0.5,0.9-1c0.2-0.4,0.3-0.9,0.4-1.4C235.1,188.2,235,187.8,234.8,187.4L234.8,187.4z M235.1,194.2c-0.3-0.4-0.6-0.7-1-0.9
				c-0.4-0.2-0.9-0.3-1.4-0.4c-0.4,0-0.7-0.1-1-0.1c-0.3,0-0.6-0.1-0.9-0.1c-0.2,1.4-0.2,2.1-0.4,3.5c-0.1,0.4-0.1,0.7-0.2,1.1
				c-0.1,0.3-0.1,0.6-0.2,0.8c0.3,0,0.6,0.1,0.8,0.1s0.5,0.1,0.8,0.1c0.3,0,0.5,0.1,0.7,0.1c0.9,0.1,1.7-0.1,2.2-0.6
				c0.5-0.5,0.8-1.1,0.8-1.9C235.5,195.2,235.4,194.7,235.1,194.2L235.1,194.2z M235.1,194.2c-0.3-0.4-0.6-0.7-1-0.9
				c-0.4-0.2-0.9-0.3-1.4-0.4c-0.4,0-0.7-0.1-1-0.1c-0.3,0-0.6-0.1-0.9-0.1c-0.2,1.4-0.2,2.1-0.4,3.5c-0.1,0.4-0.1,0.7-0.2,1.1
				c-0.1,0.3-0.1,0.6-0.2,0.8c0.3,0,0.6,0.1,0.8,0.1s0.5,0.1,0.8,0.1c0.3,0,0.5,0.1,0.7,0.1c0.9,0.1,1.7-0.1,2.2-0.6
				c0.5-0.5,0.8-1.1,0.8-1.9C235.5,195.2,235.4,194.7,235.1,194.2L235.1,194.2z M234.8,187.4c-0.2-0.3-0.5-0.6-0.8-0.8
				c-0.3-0.2-0.7-0.3-1.1-0.3c-0.2,0-0.4,0-0.6,0c-0.2,0.1-0.4,0.2-0.5,0.4c-0.1,0.2-0.2,0.6-0.3,1.2c-0.2,1.3-0.2,2-0.4,3.3
				c0.5,0.1,0.7,0.1,1.2,0.1c0.6,0.1,1.1,0,1.5-0.2s0.7-0.5,0.9-1c0.2-0.4,0.3-0.9,0.4-1.4C235.1,188.2,235,187.8,234.8,187.4
				L234.8,187.4z M234.8,187.4c-0.2-0.3-0.5-0.6-0.8-0.8c-0.3-0.2-0.7-0.3-1.1-0.3c-0.2,0-0.4,0-0.6,0c-0.2,0.1-0.4,0.2-0.5,0.4
				c-0.1,0.2-0.2,0.6-0.3,1.2c-0.2,1.3-0.2,2-0.4,3.3c0.5,0.1,0.7,0.1,1.2,0.1c0.6,0.1,1.1,0,1.5-0.2s0.7-0.5,0.9-1
				c0.2-0.4,0.3-0.9,0.4-1.4C235.1,188.2,235,187.8,234.8,187.4L234.8,187.4z M235.1,194.2c-0.3-0.4-0.6-0.7-1-0.9
				c-0.4-0.2-0.9-0.3-1.4-0.4c-0.4,0-0.7-0.1-1-0.1c-0.3,0-0.6-0.1-0.9-0.1c-0.2,1.4-0.2,2.1-0.4,3.5c-0.1,0.4-0.1,0.7-0.2,1.1
				c-0.1,0.3-0.1,0.6-0.2,0.8c0.3,0,0.6,0.1,0.8,0.1s0.5,0.1,0.8,0.1c0.3,0,0.5,0.1,0.7,0.1c0.9,0.1,1.7-0.1,2.2-0.6
				c0.5-0.5,0.8-1.1,0.8-1.9C235.5,195.2,235.4,194.7,235.1,194.2L235.1,194.2z M235.1,194.2c-0.3-0.4-0.6-0.7-1-0.9
				c-0.4-0.2-0.9-0.3-1.4-0.4c-0.4,0-0.7-0.1-1-0.1c-0.3,0-0.6-0.1-0.9-0.1c-0.2,1.4-0.2,2.1-0.4,3.5c-0.1,0.4-0.1,0.7-0.2,1.1
				c-0.1,0.3-0.1,0.6-0.2,0.8c0.3,0,0.6,0.1,0.8,0.1s0.5,0.1,0.8,0.1c0.3,0,0.5,0.1,0.7,0.1c0.9,0.1,1.7-0.1,2.2-0.6
				c0.5-0.5,0.8-1.1,0.8-1.9C235.5,195.2,235.4,194.7,235.1,194.2L235.1,194.2z M233.8,191.1c0.4-0.2,0.7-0.5,0.9-1
				c0.2-0.4,0.3-0.9,0.4-1.4c0.1-0.6,0-1-0.2-1.4s-0.5-0.6-0.8-0.8c-0.3-0.2-0.7-0.3-1.1-0.3c-0.2,0-0.4,0-0.6,0
				c-0.2,0.1-0.4,0.2-0.5,0.4c-0.1,0.2-0.2,0.6-0.3,1.2c-0.2,1.3-0.2,2-0.4,3.3c0.5,0.1,0.7,0.1,1.2,0.1
				C232.9,191.4,233.4,191.4,233.8,191.1L233.8,191.1z M322.1,190.4l-3.3-8.5l-0.9-2.2l-4.1-10.8l-1.1-3c-2,0.8-3.9,1.5-5.9,2.2
				c-0.2,0.1-0.5,0.1-0.7,0.2c-1.1,0.4-2.3,0.8-3.4,1.2c-0.3,0.1-0.6,0.2-1,0.3c-1.7,0.6-3.4,1.1-5.1,1.6h0
				c-2.1,0.6-4.2,1.2-6.3,1.8h0c-7.3,1.9-14.8,3.4-22.3,4.3c-12.6,1.6-25.2,1.6-37.7,0c-6.2-0.8-12.3-2-18.4-3.6c0,0-0.1,0-0.1,0
				c-0.4-0.1-0.9-0.2-1.3-0.4c-2.6-0.7-5.2-1.5-7.7-2.4c0,0-0.1,0-0.1,0c-0.7-0.2-1.4-0.5-2.1-0.7l-0.1-0.1c-2-0.7-4-1.4-5.9-2.2
				c-0.2-0.1-0.4-0.1-0.5-0.2c-0.8-0.3-1.6-0.6-2.3-1l-5.7,13.6l-0.9,2.2l-3.5,8.4l-1.1,2.7c14.6,6.2,30.3,10.6,46.2,12.6
				c15,1.9,30.2,1.9,45,0c17.9-2.2,35.2-7,51.5-13.3L322.1,190.4L322.1,190.4z M193,186.3c-1.9,0-3.5-1.6-3.5-3.5s1.6-3.6,3.5-3.6
				s3.6,1.6,3.6,3.6S194.9,186.3,193,186.3z M238.2,198.5c-0.5,0.6-1.3,1-2.2,1.3c-0.9,0.2-1.9,0.3-3,0.2c-3.2-0.3-4.9-0.5-8.1-1.1
				c0.1-0.6,0.1-0.8,0.2-1.4c0.4,0,0.7,0,0.9,0c0.2,0,0.5-0.2,0.6-0.4c0.2-0.2,0.3-0.6,0.4-1.2c0.5-3.2,0.7-4.9,1.2-8.1
				c0.1-0.4,0.1-0.8,0.2-1.1c0.1-0.4,0.1-0.6,0.2-0.8c-0.2,0-0.5-0.1-0.9-0.1c-0.4,0-0.6-0.1-0.8-0.1c0.1-0.6,0.1-1,0.3-1.6
				c1,0.1,2,0.3,2.9,0.4c1,0.1,2,0.2,3,0.3c1.7,0.2,3,0.6,4,1.3c1,0.7,1.4,1.8,1.2,3.1c-0.1,0.4-0.2,0.8-0.5,1.2
				c-0.3,0.4-0.6,0.7-1.1,1c-0.5,0.3-1.1,0.5-1.8,0.6v0c1.5,0.4,2.6,0.9,3.2,1.7c0.7,0.8,1,1.6,0.9,2.5
				C239,197.1,238.7,197.9,238.2,198.5L238.2,198.5z M254.8,200.5c0-0.6,0-0.9-0.1-1.4c0.4,0,0.7-0.1,0.9-0.2
				c0.3-0.1,0.4-0.3,0.6-0.5c0.1-0.3,0.1-0.7,0.1-1.2c-0.2-1.8-0.3-2.7-0.4-4.5c0-0.2-0.1-0.5-0.1-0.9c-0.1-0.4-0.1-0.9-0.2-1.4
				c-0.1-0.5-0.1-1-0.1-1.4c0,0.1-0.1,0.2-0.1,0.3c0,0.1-0.1,0.2-0.1,0.3c-1.5,4.6-2.3,6.8-4,11.3c-0.9,0-1.3,0-2.2,0
				c-0.6-1.2-1.1-2.4-1.6-3.5s-1-2.4-1.5-3.5c-0.1-0.3-0.3-0.7-0.4-1.2c-0.2-0.5-0.4-1.1-0.6-1.7c-0.2-0.6-0.4-1.3-0.5-2
				c0,0.8,0,1.6,0,2.3s0,1.4-0.1,2c0,0.3,0,0.6,0,1c0,0.3,0,0.7,0,1c0,0.3,0,0.6,0,1c0,0.3,0,0.6,0,1c0,0.4,0,0.8-0.1,1.1
				c0,0.4-0.1,0.6-0.1,0.8c0.3,0,0.6,0,1,0h0.8c0,0.7,0,1,0,1.6c-2.2,0-3.3-0.1-5.4-0.2c0-0.6,0-0.9,0.1-1.4c0.4,0,0.7,0,0.9-0.1
				c0.2-0.1,0.4-0.2,0.6-0.5c0.1-0.2,0.2-0.7,0.2-1.2c0.2-3.3,0.3-4.9,0.5-8.2c0-0.4,0.1-0.8,0.1-1.1c0-0.4,0.1-0.6,0.1-0.8
				c-0.2,0-0.5,0-0.9,0c-0.3,0-0.6,0-0.8,0c0-0.7,0.1-1,0.1-1.6c1.9,0.1,2.8,0.1,4.7,0.1c1.2,3.3,1.9,5,3.3,8.3
				c0.1,0.3,0.3,0.7,0.5,1.1c0.2,0.4,0.4,0.9,0.5,1.2c0.2,0.4,0.3,0.7,0.4,1h0c0.2-0.5,0.4-1,0.5-1.5c0.2-0.5,0.3-0.9,0.5-1.4
				c0.6-1.5,1.1-3,1.6-4.5c0.5-1.5,1-3,1.5-4.5c2-0.1,3-0.2,4.9-0.4c0,0.6,0.1,0.9,0.1,1.4c-0.3,0-0.6,0.1-0.8,0.2
				c-0.2,0.1-0.4,0.3-0.5,0.5c-0.1,0.3-0.1,0.7-0.1,1.3c0.4,3.3,0.6,4.9,1,8.1c0.1,0.4,0.1,0.8,0.1,1.1c0,0.4,0,0.6,0,0.8
				c0.3-0.1,0.6-0.1,1-0.1c0.4,0,0.7-0.1,0.8-0.1c0.1,0.7,0.1,1,0.1,1.6C258.8,200.3,257.5,200.4,254.8,200.5L254.8,200.5z
				 M263.6,199.8c-0.1-0.6-0.1-0.8-0.2-1.4c0.4-0.1,0.7-0.1,0.9-0.2c0.2-0.1,0.4-0.3,0.5-0.6s0.1-0.7,0-1.3c-0.4-3.2-0.6-4.9-1-8.1
				c0-0.4-0.1-0.8-0.1-1.1c0-0.4,0-0.6,0-0.8c-0.2,0.1-0.5,0.1-0.9,0.1c-0.3,0.1-0.6,0.1-0.8,0.1c-0.1-0.7-0.1-1-0.2-1.6
				c2.5-0.3,3.7-0.4,6.1-0.8c0.1,0.6,0.1,0.8,0.2,1.4c-0.3,0.1-0.6,0.1-0.8,0.3c-0.2,0.1-0.4,0.3-0.5,0.6c-0.1,0.3-0.1,0.7,0,1.3
				c0.5,3.2,0.7,4.9,1.2,8.1c0,0.4,0.1,0.8,0.1,1.1c0,0.4,0,0.6,0,0.8c0.2-0.1,0.6-0.1,1-0.2c0.4-0.1,0.6-0.1,0.8-0.1
				c0.1,0.6,0.2,1,0.3,1.6C267.7,199.3,266.4,199.5,263.6,199.8L263.6,199.8z M309.6,186.3c-2,0-3.5-1.6-3.5-3.5s1.6-3.6,3.5-3.6
				s3.5,1.6,3.5,3.6S311.5,186.3,309.6,186.3z M234.1,193.3c-0.4-0.2-0.9-0.3-1.4-0.4c-0.4,0-0.7-0.1-1-0.1c-0.3,0-0.6-0.1-0.9-0.1
				c-0.2,1.4-0.2,2.1-0.4,3.5c-0.1,0.4-0.1,0.7-0.2,1.1c-0.1,0.3-0.1,0.6-0.2,0.8c0.3,0,0.6,0.1,0.8,0.1s0.5,0.1,0.8,0.1
				c0.3,0,0.5,0.1,0.7,0.1c0.9,0.1,1.7-0.1,2.2-0.6c0.5-0.5,0.8-1.1,0.8-1.9c0.1-0.6-0.1-1.2-0.3-1.6
				C234.9,193.8,234.5,193.5,234.1,193.3L234.1,193.3z M233.8,191.1c0.4-0.2,0.7-0.5,0.9-1c0.2-0.4,0.3-0.9,0.4-1.4
				c0.1-0.6,0-1-0.2-1.4s-0.5-0.6-0.8-0.8c-0.3-0.2-0.7-0.3-1.1-0.3c-0.2,0-0.4,0-0.6,0c-0.2,0.1-0.4,0.2-0.5,0.4
				c-0.1,0.2-0.2,0.6-0.3,1.2c-0.2,1.3-0.2,2-0.4,3.3c0.5,0.1,0.7,0.1,1.2,0.1C232.9,191.4,233.4,191.4,233.8,191.1L233.8,191.1z
				 M234.8,187.4c-0.2-0.3-0.5-0.6-0.8-0.8c-0.3-0.2-0.7-0.3-1.1-0.3c-0.2,0-0.4,0-0.6,0c-0.2,0.1-0.4,0.2-0.5,0.4
				c-0.1,0.2-0.2,0.6-0.3,1.2c-0.2,1.3-0.2,2-0.4,3.3c0.5,0.1,0.7,0.1,1.2,0.1c0.6,0.1,1.1,0,1.5-0.2s0.7-0.5,0.9-1
				c0.2-0.4,0.3-0.9,0.4-1.4C235.1,188.2,235,187.8,234.8,187.4L234.8,187.4z M235.1,194.3c-0.3-0.4-0.6-0.7-1-0.9
				c-0.4-0.2-0.9-0.3-1.4-0.4c-0.4,0-0.7-0.1-1-0.1c-0.3,0-0.6-0.1-0.9-0.1c-0.2,1.4-0.2,2.1-0.4,3.5c-0.1,0.4-0.1,0.7-0.2,1.1
				c-0.1,0.3-0.1,0.6-0.2,0.8c0.3,0,0.6,0.1,0.8,0.1s0.5,0.1,0.8,0.1c0.3,0,0.5,0.1,0.7,0.1c0.9,0.1,1.7-0.1,2.2-0.6
				c0.5-0.5,0.8-1.1,0.8-1.9C235.5,195.2,235.4,194.7,235.1,194.3L235.1,194.3z M235.1,194.3c-0.3-0.4-0.6-0.7-1-0.9
				c-0.4-0.2-0.9-0.3-1.4-0.4c-0.4,0-0.7-0.1-1-0.1c-0.3,0-0.6-0.1-0.9-0.1c-0.2,1.4-0.2,2.1-0.4,3.5c-0.1,0.4-0.1,0.7-0.2,1.1
				c-0.1,0.3-0.1,0.6-0.2,0.8c0.3,0,0.6,0.1,0.8,0.1s0.5,0.1,0.8,0.1c0.3,0,0.5,0.1,0.7,0.1c0.9,0.1,1.7-0.1,2.2-0.6
				c0.5-0.5,0.8-1.1,0.8-1.9C235.5,195.2,235.4,194.7,235.1,194.3L235.1,194.3z M234.8,187.4c-0.2-0.3-0.5-0.6-0.8-0.8
				c-0.3-0.2-0.7-0.3-1.1-0.3c-0.2,0-0.4,0-0.6,0c-0.2,0.1-0.4,0.2-0.5,0.4c-0.1,0.2-0.2,0.6-0.3,1.2c-0.2,1.3-0.2,2-0.4,3.3
				c0.5,0.1,0.7,0.1,1.2,0.1c0.6,0.1,1.1,0,1.5-0.2s0.7-0.5,0.9-1c0.2-0.4,0.3-0.9,0.4-1.4C235.1,188.2,235,187.8,234.8,187.4
				L234.8,187.4z"/>
			<path class="st0" d="M185.4,167l-3.9,1.5c-1.3,0.5-2.6,0.9-3.9,1.4c-2.6,0.9-5.4,1.7-8.1,2.5l-3.4,1l9.3,4.9
				c3.2,1.5,6.4,2.9,9.6,4.4l0.9-2.2l5.7-13.6c3.2-0.1,6.4-0.4,9.5-0.6l2.3-0.2l2.3-0.3l4.6-0.7l2.9-0.4c1-0.2,1.9-0.4,2.9-0.6
				c-12.6-3.1-24.9-8.1-36.6-14.7l0.8,3.3c0.7,2.4,1.5,4.8,2.3,7.2c0.4,1.2,0.8,2.5,1.3,3.6L185.4,167L185.4,167z"/>
			<g>
				<path class="st0" d="M197.4,169.1l4,1.5c1.3,0.5,2.7,0.8,4.1,1.3c2.7,0.8,5.4,1.8,8.1,2.3l1.9-7.5l0.7-2.7c-1,0.2-2,0.5-2.9,0.6
					l-3,0.5l-6.1,0.9c-2.1,0.3-4.1,0.4-6.2,0.5c-2.1,0.1-4.2,0.4-6.3,0.4C193.6,167.7,195.5,168.4,197.4,169.1L197.4,169.1z"/>
				<path class="st0" d="M312.6,165.9c-8.6-0.4-17-1.4-25-2.9l0.7,2.7l1.9,7.5l8.3-2.3c2.7-0.9,5.5-1.8,8.2-2.8c1-0.3,2-0.6,3-1
					L312.6,165.9L312.6,165.9z"/>
			</g>
		</g>
	</g>
</g>
</svg>
