<svg xmlns="http://www.w3.org/2000/svg" width="16.325" height="16.325" viewBox="1235.176 -116 16.325 16.325"><path d="M1243.5-99.674h-.163c-1.28.002-2.462-.03-3.612-.1-1.054-.064-2.016-.429-2.783-1.054-.74-.603-1.244-1.418-1.5-2.423-.224-.875-.236-1.734-.247-2.564-.009-.596-.017-1.303-.019-2.02.002-.722.01-1.428.019-2.024.011-.83.023-1.69.246-2.564.257-1.005.762-1.82 1.501-2.424.767-.625 1.729-.99 2.783-1.053a56.88 56.88 0 0 1 3.615-.1c1.28-.002 2.462.03 3.612.1 1.054.064 2.017.428 2.783 1.053.74.603 1.245 1.419 1.501 2.424.224.874.235 1.733.247 2.564.008.596.017 1.302.018 2.02v.003c-.001.718-.01 1.425-.018 2.02-.012.831-.023 1.69-.247 2.565-.256 1.005-.761 1.82-1.5 2.423-.767.625-1.73.99-2.784 1.054-1.101.067-2.232.1-3.452.1Zm-.163-1.276a55.656 55.656 0 0 0 3.538-.097c.797-.049 1.488-.307 2.054-.769.524-.427.884-1.016 1.072-1.75.185-.729.196-1.51.206-2.267.008-.592.017-1.293.019-2.004-.002-.712-.01-1.413-.019-2.005-.01-.756-.02-1.538-.206-2.266-.188-.735-.548-1.324-1.072-1.75-.566-.462-1.257-.72-2.054-.77a55.713 55.713 0 0 0-3.535-.096 55.558 55.558 0 0 0-3.537.097c-.797.048-1.489.307-2.055.769-.523.426-.884 1.015-1.071 1.75-.186.728-.197 1.51-.207 2.266a180.09 180.09 0 0 0-.018 2.006c.001.709.01 1.41.018 2.003.01.756.021 1.538.207 2.267.187.734.548 1.323 1.071 1.75.566.462 1.258.72 2.055.769 1.123.068 2.279.1 3.534.097Zm-.03-2.901a3.99 3.99 0 0 1-3.986-3.986 3.99 3.99 0 0 1 3.986-3.986 3.99 3.99 0 0 1 3.985 3.986 3.99 3.99 0 0 1-3.985 3.986Zm0-6.696a2.713 2.713 0 0 0-2.71 2.71 2.713 2.713 0 0 0 2.71 2.71 2.713 2.713 0 0 0 2.71-2.71 2.713 2.713 0 0 0-2.71-2.71Zm4.432-2.551a.957.957 0 1 0 0 1.913.957.957 0 0 0 0-1.913Z" fill="#3d54a1" fill-rule="evenodd" data-name="Path 3961"/></svg>