<svg xmlns="http://www.w3.org/2000/svg" width="21.79" height="15.321" viewBox="975.105 30 21.79 15.321"><g data-name="Group 617"><g data-name="Group 154"><g data-name="Group 153"><path d="m996.703 31.095-6.608 6.566 6.608 6.565c.12-.25.192-.525.192-.82v-11.49c0-.296-.072-.572-.192-.821Z" fill="#3d54a1" fill-rule="evenodd" data-name="Path 3878"/></g></g><g data-name="Group 156"><g data-name="Group 155"><path d="M994.98 30h-17.96c-.295 0-.57.072-.82.192l8.446 8.404a1.917 1.917 0 0 0 2.708 0l8.446-8.404a1.893 1.893 0 0 0-.82-.192Z" fill="#3d54a1" fill-rule="evenodd" data-name="Path 3879"/></g></g><g data-name="Group 158"><g data-name="Group 157"><path d="M975.297 31.095c-.12.25-.192.525-.192.82v11.49c0 .296.073.572.192.821l6.608-6.565-6.608-6.566Z" fill="#3d54a1" fill-rule="evenodd" data-name="Path 3880"/></g></g><g data-name="Group 160"><g data-name="Group 159"><path d="m989.192 38.563-.935.935a3.195 3.195 0 0 1-4.514 0l-.935-.935-6.608 6.566c.25.12.525.192.82.192h17.96c.295 0 .57-.072.82-.192l-6.608-6.566Z" fill="#3d54a1" fill-rule="evenodd" data-name="Path 3881"/></g></g></g></svg>