<svg xmlns="http://www.w3.org/2000/svg" width="13.65" height="13.649" viewBox="1272.414 101.074 13.65 13.649"><path d="m1285.904 113.805-3.393-3.338a5.59 5.59 0 0 0-.264-7.733 5.77 5.77 0 0 0-4.072-1.66c-1.539 0-2.985.59-4.073 1.66a5.59 5.59 0 0 0-1.688 4.01c0 1.515.6 2.94 1.688 4.01a5.769 5.769 0 0 0 4.073 1.66 5.812 5.812 0 0 0 3.548-1.205l3.412 3.358a.546.546 0 0 0 .769 0 .53.53 0 0 0 0-.762Zm-3.058-7.06c0 2.533-2.096 4.595-4.671 4.595-2.576 0-4.672-2.062-4.672-4.596 0-2.534 2.096-4.595 4.672-4.595 2.575 0 4.67 2.061 4.67 4.595Z" fill="#a8a8a8" fill-rule="evenodd" data-name="Path 6735"/></svg>