<?xml version="1.0" encoding="utf-8"?>
<!-- Generator: Adobe Illustrator 27.1.1, SVG Export Plug-In . SVG Version: 6.00 Build 0)  -->
<svg version="1.1" id="Layer_2_00000148621908639119386950000015922244611150998974_"
	 xmlns="http://www.w3.org/2000/svg" xmlns:xlink="http://www.w3.org/1999/xlink" x="0px" y="0px" viewBox="0 0 422.7 135.1"
	 style="enable-background:new 0 0 422.7 135.1;" xml:space="preserve">
<style type="text/css">
	.st0{fill:#FFFFFF;}
</style>
<g id="Layer_1-2">
	<g>
		<g>
			<g>
				<path class="st0" d="M103.7,32.2v-1.5c1.1,0,1.9-0.3,2.3-0.8s0.6-1.2,0.7-2s0.1-1.8,0.1-2.9V6.4c0-0.8,0-1.5,0-2.1
					c0-0.6,0.1-1.1,0.1-1.4c-0.5,0-1.1,0.1-1.6,0.1s-1.1,0.1-1.6,0.1v-2c1.6,0,3.3,0,4.9-0.1s3.3,0,5.1,0c3.4,0,6.1,0.6,8.1,1.8
					c1.9,1.2,2.9,3.1,2.8,5.8c0,0.9-0.3,1.9-0.8,2.8c-0.6,0.9-1.4,1.8-2.4,2.5s-2.4,1.2-4.1,1.5v0.1c3.3,0,5.7,0.7,7.4,2.2
					c1.7,1.5,2.5,3.4,2.5,5.7c0,1.8-0.5,3.4-1.4,4.7s-2.2,2.3-3.7,3s-3.4,1-5.4,1L103.7,32.2L103.7,32.2z M110.4,30.4
					c0.5,0,1,0,1.7,0.1s1.3,0,1.9,0h1.1c2.3,0,4.1-0.6,5.5-1.7c1.4-1.1,2.1-2.8,2.1-5c0-1.8-0.4-3.2-1.1-4.2s-1.6-1.7-2.8-2.1
					c-1.2-0.4-2.4-0.6-3.8-0.6c-0.9,0-1.7,0-2.4,0c-0.7,0-1.4,0-2.2,0.1v10c0,0.8,0,1.5,0,2C110.5,29.6,110.5,30.1,110.4,30.4
					L110.4,30.4z M110.6,15.2l3.2-0.1c1.7,0,3-0.4,4-1s1.7-1.5,2.1-2.5s0.6-2.1,0.6-3.2c0-1.6-0.4-2.8-1.1-3.6s-1.6-1.4-2.6-1.7
					s-2-0.5-3-0.5s-1.7,0.1-2.2,0.4c-0.5,0.3-0.8,0.7-0.9,1.3s-0.2,1.5-0.2,2.6L110.6,15.2L110.6,15.2z"/>
				<path class="st0" d="M139.9,2.6c-1,0-1.7,0.2-2.1,0.6c-0.4,0.4-0.7,0.9-0.8,1.4c-0.1,0.6-0.1,1-0.1,1.4v11.2
					c0,1.7,0.1,3.3,0.3,4.8c0.2,1.5,0.6,3,1.3,4.2c0.6,1.2,1.6,2.2,2.8,3s2.8,1.1,4.8,1.1c2.1,0,3.9-0.5,5.2-1.5s2.3-2.4,3-4.2
					s1-3.8,1-6.1l0.1-12.5c0-0.6,0-1.2,0-1.7s0.1-1,0.1-1.5c-0.5,0-1.1,0.1-1.6,0.1s-1,0.1-1.6,0.1V1.1h8.3v1.5
					c-1.1,0-1.9,0.3-2.3,0.8c-0.4,0.5-0.7,1.1-0.7,1.9s-0.1,1.7-0.1,2.8l-0.1,10.3c0,1.9-0.2,3.8-0.6,5.5c-0.4,1.8-1.1,3.3-2,4.7
					c-0.9,1.4-2.2,2.4-3.7,3.2s-3.4,1.2-5.6,1.2c-2.4,0-4.4-0.3-6-0.9c-1.6-0.6-2.9-1.6-3.9-2.9c-1-1.3-1.6-3-2.1-4.9
					c-0.4-2-0.6-4.4-0.6-7.1v-9c0-0.8,0-1.7,0.1-2.7c0-1,0.1-1.9,0.1-2.4c-0.5,0-1.1,0-1.6,0.1c-0.5,0-1.1,0-1.6,0.1V1.1h9.9
					L139.9,2.6L139.9,2.6z"/>
				<path class="st0" d="M181.8,10.6c-0.1-1.4-0.4-2.8-1-4c-0.6-1.3-1.4-2.3-2.6-3.1s-2.6-1.2-4.3-1.2c-1.8,0-3.2,0.5-4.2,1.5
					c-1,1-1.5,2.2-1.5,3.6c0,1.2,0.4,2.3,1.1,3.1s1.6,1.6,2.8,2.2s2.4,1.2,3.6,1.8c1.1,0.5,2.2,1.1,3.4,1.6c1.1,0.6,2.1,1.2,3.1,2
					c0.9,0.7,1.6,1.6,2.2,2.6c0.6,1,0.8,2.2,0.8,3.7c0,1.6-0.4,3.1-1.2,4.4s-2,2.3-3.5,3c-1.5,0.7-3.4,1.1-5.6,1.1
					c-1.3,0-2.7-0.2-4.1-0.6c-1.4-0.4-2.7-1-3.8-1.7l0.2,1.9h-2.3l-0.3-9.5h1.7c0.1,2.6,1.1,4.6,2.7,5.9s3.7,2,6,2
					c1.2,0,2.2-0.2,3.2-0.6s1.8-1.1,2.3-1.9s0.9-1.8,0.9-3c0-1.3-0.4-2.4-1.1-3.3c-0.7-0.9-1.6-1.7-2.8-2.3s-2.3-1.3-3.6-1.9
					c-1.1-0.5-2.2-1-3.3-1.6c-1.1-0.6-2.1-1.2-3-1.9s-1.6-1.6-2.2-2.6c-0.6-1-0.8-2.2-0.8-3.6c0-0.8,0.1-1.6,0.4-2.5
					c0.3-0.9,0.7-1.7,1.4-2.5s1.6-1.5,2.8-2s2.7-0.8,4.5-0.8c1.1,0,2.4,0.2,3.8,0.5s2.7,0.9,3.9,1.8l-0.2-1.9h2.3v9.8H181.8
					L181.8,10.6z"/>
				<path class="st0" d="M199.5,2.6c-1.1,0-1.9,0.3-2.3,0.8c-0.4,0.5-0.7,1.1-0.7,1.9s-0.1,1.7-0.1,2.8V27c0,0.8,0,1.5,0,2.1
					c0,0.6-0.1,1.1-0.1,1.4c0.5,0,1.1-0.1,1.6-0.1s1.1-0.1,1.6-0.1v2h-10v-1.5c1.1-0.1,1.9-0.3,2.3-0.8c0.4-0.5,0.6-1.1,0.7-1.9
					c0-0.8,0.1-1.7,0.1-2.8V6.1c0-0.6,0-1.2,0-1.7s0.1-1,0.1-1.5c-0.5,0-1.1,0.1-1.6,0.1s-1.1,0.1-1.6,0.1V1.1h10L199.5,2.6
					L199.5,2.6z"/>
				<path class="st0" d="M228.7,32.9L211,9.1c-0.3-0.4-0.5-0.7-0.8-1s-0.5-0.7-0.8-1h0l0.1,19v2.2c0,0.7,0,1.5-0.1,2.2
					c0.5,0,1.1-0.1,1.6-0.1s1.1-0.1,1.6-0.1v1.9h-8.1v-1.5c0.9,0,1.6-0.2,2-0.6s0.7-0.9,0.8-1.4s0.2-1,0.2-1.5l0-21.4v-3
					C207,3,206.5,3,206,3c-0.5,0-1,0.1-1.5,0.1V1.1h5.3l16.6,22.3c0.4,0.5,0.8,1,1.1,1.5c0.4,0.5,0.8,1,1.1,1.5h0l0-20.3
					c0-0.6,0-1.2,0-1.7s0.1-1,0.1-1.5c-0.5,0-1.1,0.1-1.6,0.1s-1.1,0.1-1.6,0.1v-2h8.2v1.5c-1.1,0-1.9,0.3-2.3,0.8
					c-0.4,0.5-0.6,1.1-0.7,1.9s0,1.7,0,2.8L230.8,33L228.7,32.9L228.7,32.9z"/>
				<path class="st0" d="M253.7,20.7c0-1.3-0.2-2.2-0.5-2.8c-0.4-0.6-0.9-0.9-1.7-1s-1.8-0.1-3.1-0.1l-3.2,0.1v10.2c0,0.8,0,1.5,0,2
					c0,0.6-0.1,1-0.1,1.4l8.5-0.1c1.3,0,2.4-0.2,3.4-0.6c1-0.4,1.7-1.1,2.2-2.1s0.8-2.4,0.8-4.1h1.5l-0.3,8.7h-22.9v-1.5
					c1.1-0.1,1.9-0.3,2.3-0.8c0.4-0.5,0.6-1.1,0.7-1.9c0-0.8,0.1-1.7,0.1-2.8V6.1c0-0.6,0-1.2,0-1.7s0.1-1,0.1-1.5
					c-0.5,0-1.1,0.1-1.6,0.1s-1.1,0.1-1.6,0.1V1.1h21.4l0.2,7.8h-1.5c0-1.8-0.3-3.1-0.8-4s-1.2-1.5-2.1-1.8s-1.9-0.5-3-0.4l-3.8,0.1
					c-1.1,0-1.9,0.2-2.4,0.6c-0.5,0.4-0.8,0.9-0.9,1.7c-0.1,0.8-0.2,1.7-0.2,3v7.1l8.4,0l-0.3-3.8h1.9v9.3L253.7,20.7L253.7,20.7z"
					/>
				<path class="st0" d="M283.3,10.6c-0.1-1.4-0.4-2.8-1-4s-1.5-2.3-2.6-3.1s-2.6-1.2-4.3-1.2c-1.8,0-3.2,0.5-4.2,1.5
					c-1,1-1.5,2.2-1.5,3.6c0,1.2,0.4,2.3,1.1,3.1s1.6,1.6,2.8,2.2c1.1,0.6,2.4,1.2,3.6,1.8c1.1,0.5,2.2,1.1,3.4,1.6
					c1.1,0.6,2.1,1.2,3.1,2c0.9,0.7,1.6,1.6,2.2,2.6c0.5,1,0.8,2.2,0.8,3.7c0,1.6-0.4,3.1-1.2,4.4s-2,2.3-3.5,3
					c-1.5,0.7-3.4,1.1-5.6,1.1c-1.3,0-2.7-0.2-4.1-0.6c-1.4-0.4-2.7-1-3.8-1.7l0.2,1.9h-2.3l-0.3-9.5h1.7c0.1,2.6,1,4.6,2.7,5.9
					s3.7,2,6,2c1.2,0,2.2-0.2,3.2-0.6s1.8-1.1,2.3-1.9s0.9-1.8,0.9-3c0-1.3-0.4-2.4-1.1-3.3c-0.7-0.9-1.6-1.7-2.8-2.3
					s-2.3-1.3-3.6-1.9c-1.1-0.5-2.2-1-3.3-1.6c-1.1-0.6-2.1-1.2-3-1.9s-1.6-1.6-2.2-2.6c-0.5-1-0.8-2.2-0.8-3.6
					c0-0.8,0.1-1.6,0.4-2.5s0.7-1.7,1.4-2.5c0.7-0.8,1.6-1.5,2.8-2s2.7-0.8,4.5-0.8c1.1,0,2.4,0.2,3.8,0.5c1.4,0.3,2.7,0.9,3.9,1.8
					l-0.2-1.9h2.3v9.8H283.3L283.3,10.6z"/>
				<path class="st0" d="M308.5,10.6c-0.1-1.4-0.4-2.8-1-4s-1.5-2.3-2.6-3.1s-2.6-1.2-4.3-1.2c-1.8,0-3.2,0.5-4.2,1.5
					c-1,1-1.5,2.2-1.5,3.6c0,1.2,0.4,2.3,1.1,3.1s1.6,1.6,2.8,2.2c1.1,0.6,2.4,1.2,3.6,1.8c1.1,0.5,2.2,1.1,3.4,1.6
					c1.1,0.6,2.1,1.2,3.1,2c0.9,0.7,1.6,1.6,2.2,2.6c0.5,1,0.8,2.2,0.8,3.7c0,1.6-0.4,3.1-1.2,4.4s-2,2.3-3.5,3
					c-1.5,0.7-3.4,1.1-5.6,1.1c-1.3,0-2.7-0.2-4.1-0.6c-1.4-0.4-2.7-1-3.8-1.7l0.2,1.9h-2.3l-0.3-9.5h1.7c0.1,2.6,1,4.6,2.7,5.9
					s3.7,2,6,2c1.2,0,2.2-0.2,3.2-0.6s1.8-1.1,2.3-1.9s0.9-1.8,0.9-3c0-1.3-0.4-2.4-1.1-3.3c-0.7-0.9-1.6-1.7-2.8-2.3
					s-2.3-1.3-3.6-1.9c-1.1-0.5-2.2-1-3.3-1.6c-1.1-0.6-2.1-1.2-3-1.9s-1.6-1.6-2.2-2.6c-0.5-1-0.8-2.2-0.8-3.6
					c0-0.8,0.1-1.6,0.4-2.5s0.7-1.7,1.4-2.5c0.7-0.8,1.6-1.5,2.8-2s2.7-0.8,4.5-0.8c1.1,0,2.4,0.2,3.8,0.5c1.4,0.3,2.7,0.9,3.9,1.8
					l-0.2-1.9h2.3v9.8H308.5L308.5,10.6z"/>
			</g>
			<g>
				<path class="st0" d="M120.9,75.8c-1.3-3-2.6-5.9-3.9-8.9c-1.3-3-2.6-5.9-3.9-9c-0.4-1-0.8-1.9-1.2-2.9s-0.8-1.9-1.2-2.9
					s-0.8-2-1.1-2.9c0,0.3,0,0.7,0,1c0,0.3,0,0.7,0,1c0,1.1-0.1,2.3-0.1,3.8s-0.1,3.1-0.2,4.8s-0.1,3.4-0.1,5.1
					c0,1.7-0.1,3.3-0.1,4.8c0,0.7-0.1,1.3-0.1,1.9c0,0.7-0.1,1.3-0.1,1.8c0.6,0,1.1-0.1,1.7-0.1c0.6,0,1.1-0.1,1.7-0.1v1.9h-8.5
					v-1.5c0.9,0,1.6-0.2,2-0.6c0.4-0.4,0.7-0.9,0.8-1.5s0.2-1.3,0.2-2l0.8-20.2c0-0.6,0.1-1.2,0.1-1.8c0-0.6,0-1.2,0.1-1.7
					c-0.5,0-1.1,0-1.6,0.1c-0.5,0-1.1,0-1.6,0.1v-1.9h6.8l7.6,17.6c0.4,0.9,0.8,1.8,1.1,2.7c0.4,0.9,0.8,1.8,1.2,2.7
					c0.4,0.9,0.8,1.8,1.2,2.7h0.1c0.3-0.8,0.7-1.8,1.2-2.9c0.4-1.1,0.8-2.1,1.1-2.9c1.3-3.3,2.7-6.5,4.1-9.8
					c1.4-3.3,2.8-6.7,4.1-10.2h6.6v1.5c-0.7,0-1.4,0.1-1.8,0.4c-0.5,0.3-0.8,0.8-1,1.5s-0.3,1.7-0.2,2.9l1.2,20.2
					c0.1,0.5,0.1,1,0.1,1.5v1.3c0.5,0,1.1-0.1,1.6-0.1c0.6,0,1.1,0,1.6-0.1v1.9H131v-1.5c0.9,0,1.6-0.2,2-0.7c0.4-0.4,0.7-1,0.8-1.8
					s0.1-1.7,0.1-2.8l-0.9-14.7c0-0.5-0.1-1-0.1-1.4c0-0.5-0.1-1-0.1-1.4c0-0.5-0.1-1-0.1-1.4c-0.1,0.2-0.2,0.4-0.3,0.7
					c-0.1,0.2-0.2,0.5-0.3,0.8l-10,24.7L120.9,75.8L120.9,75.8z"/>
				<path class="st0" d="M142.2,75.4v-1.5c0.9,0,1.6-0.2,2-0.7c0.5-0.5,0.9-1.1,1.2-2s0.7-1.8,1.1-2.9l9.1-24.9h1.1l9.9,25.3
					c0.2,0.6,0.5,1.4,0.8,2.4s0.4,1.8,0.4,2.5c0.5,0,1-0.1,1.5-0.1s1-0.1,1.5-0.1v1.9h-10.2v-1.5c1.1,0,1.9-0.3,2.2-0.8
					s0.5-1,0.4-1.7s-0.2-1.2-0.4-1.8l-1.6-4.2l-11.6,0.3l-1.6,4.8c-0.2,0.7-0.4,1.3-0.6,1.7c-0.2,0.4-0.4,0.9-0.6,1.4
					c0.6,0,1.2-0.1,1.8-0.1s1.1-0.1,1.7-0.1v1.9L142.2,75.4L142.2,75.4z M150.4,63.9h10.3l-3.1-8.5c-0.3-0.9-0.7-1.8-1-2.7
					c-0.3-0.9-0.7-1.8-1-2.7h-0.1c-0.3,0.8-0.6,1.7-0.9,2.5s-0.6,1.7-0.9,2.5L150.4,63.9L150.4,63.9z"/>
				<path class="st0" d="M197,76.1l-17.7-23.8c-0.3-0.3-0.5-0.7-0.8-1s-0.5-0.7-0.8-1h0l0.1,19v2.2c0,0.7,0,1.5-0.1,2.2
					c0.5,0,1.1-0.1,1.6-0.1s1.1-0.1,1.6-0.1v1.9h-8.1v-1.5c0.9,0,1.6-0.2,2-0.6s0.7-0.9,0.8-1.4c0.1-0.6,0.2-1,0.2-1.5l0-21.4v-3
					c-0.5,0-1,0.1-1.5,0.1c-0.5,0-1,0.1-1.5,0.1v-2h5.3l16.6,22.3c0.4,0.5,0.8,1,1.1,1.5c0.4,0.5,0.8,1,1.1,1.5h0l0-20.3
					c0-0.6,0-1.2,0-1.7s0.1-1,0.1-1.5c-0.5,0-1.1,0.1-1.6,0.1s-1.1,0.1-1.6,0.1v-2h8.2v1.5c-1.1,0-1.9,0.3-2.3,0.8
					c-0.4,0.5-0.6,1.1-0.7,1.9s0,1.7,0,2.8l-0.1,24.9L197,76.1L197,76.1z"/>
				<path class="st0" d="M203.8,75.4v-1.5c0.9,0,1.6-0.2,2-0.7c0.5-0.5,0.9-1.1,1.2-2s0.7-1.8,1.1-2.9l9.1-24.9h1.1l9.9,25.3
					c0.2,0.6,0.5,1.4,0.8,2.4s0.4,1.8,0.4,2.5c0.5,0,1-0.1,1.5-0.1s1-0.1,1.5-0.1v1.9h-10.2v-1.5c1.1,0,1.9-0.3,2.2-0.8
					s0.5-1,0.4-1.7s-0.2-1.2-0.4-1.8l-1.6-4.2l-11.6,0.3l-1.6,4.8c-0.2,0.7-0.4,1.3-0.6,1.7c-0.2,0.4-0.4,0.9-0.6,1.4
					c0.6,0,1.2-0.1,1.8-0.1s1.1-0.1,1.7-0.1v1.9L203.8,75.4L203.8,75.4z M212,63.9h10.3l-3.1-8.5c-0.3-0.9-0.7-1.8-1-2.7
					c-0.3-0.9-0.7-1.8-1-2.7H217c-0.3,0.8-0.6,1.7-0.9,2.5s-0.6,1.7-0.9,2.5L212,63.9L212,63.9z"/>
				<path class="st0" d="M248.9,76.1c-3,0-5.6-0.6-7.9-1.9c-2.3-1.2-4.1-3-5.3-5.4c-1.3-2.3-1.9-5.1-1.9-8.3c0-2.1,0.3-4.2,0.9-6.2
					c0.6-2,1.6-3.8,2.9-5.4c1.3-1.6,2.9-2.9,4.8-3.9c1.9-1,4.2-1.4,6.8-1.4c1.1,0,2.1,0.1,3.2,0.3c1.1,0.2,2.1,0.5,3.2,0.8
					c1,0.4,2,0.8,2.8,1.3l-0.2-2.1h2.4V54h-1.6c-0.1-1.9-0.6-3.4-1.5-4.7c-0.9-1.3-2-2.3-3.4-3s-2.9-1-4.7-1c-1.6,0-3,0.3-4.4,1
					c-1.4,0.7-2.6,1.7-3.6,2.9c-1.1,1.3-1.9,2.8-2.5,4.5s-0.9,3.6-0.9,5.7c0,2.8,0.5,5.3,1.5,7.5s2.4,3.9,4.2,5.2
					c1.8,1.2,3.9,1.9,6.2,1.9c0.8,0,1.6-0.1,2.5-0.2s1.8-0.4,2.6-0.7c0.9-0.3,1.7-0.8,2.5-1.3V62c-0.5,0-1,0.1-1.5,0.1
					s-1.1,0.1-1.6,0.1v-2h10v1.5c-0.8,0-1.5,0.2-1.9,0.6c-0.4,0.4-0.8,1-0.9,1.5c-0.2,0.6-0.3,1.2-0.3,1.8s0,1,0,1.3v6.8h-1.2
					c-0.5,0-1.1,0.1-2,0.3c-0.8,0.2-1.8,0.5-2.8,0.9c-0.9,0.3-2,0.6-3.2,0.8C251,76,249.9,76.1,248.9,76.1L248.9,76.1z"/>
				<path class="st0" d="M283.4,63.8c0-1.3-0.2-2.2-0.5-2.8c-0.4-0.6-0.9-0.9-1.7-1s-1.8-0.2-3.1-0.1l-3.2,0.1v10.2c0,0.8,0,1.5,0,2
					c0,0.6,0,1-0.1,1.4l8.5-0.1c1.3,0,2.4-0.2,3.4-0.6c1-0.4,1.7-1.1,2.2-2.1s0.8-2.4,0.8-4.1h1.5l-0.3,8.7h-22.9v-1.5
					c1.1-0.1,1.9-0.3,2.3-0.8c0.4-0.5,0.6-1.1,0.7-1.9c0-0.8,0.1-1.7,0.1-2.8V49.2c0-0.6,0-1.2,0-1.7s0.1-1,0.1-1.5
					c-0.5,0-1.1,0.1-1.6,0.1s-1.1,0.1-1.6,0.1v-2h21.4l0.2,7.8H288c0-1.8-0.3-3.1-0.8-4s-1.2-1.5-2.1-1.8s-1.9-0.5-3-0.4l-3.8,0.1
					c-1.1,0-1.9,0.2-2.4,0.6c-0.5,0.4-0.8,1-0.9,1.7c-0.1,0.8-0.2,1.7-0.2,3v7.1l8.4,0l-0.3-3.8h2v9.3L283.4,63.8L283.4,63.8z"/>
				<path class="st0" d="M312.3,75.8c-1.3-3-2.6-5.9-4-8.9c-1.3-3-2.6-5.9-3.9-9c-0.4-1-0.8-1.9-1.2-2.9s-0.8-1.9-1.1-2.9
					s-0.8-2-1.1-2.9c0,0.3,0,0.7,0,1c0,0.3,0,0.7,0,1c0,1.1-0.1,2.3-0.1,3.8c0,1.5-0.1,3.1-0.2,4.8c-0.1,1.7-0.1,3.4-0.1,5.1
					c0,1.7-0.1,3.3-0.1,4.8c0,0.7,0,1.3-0.1,1.9c0,0.7,0,1.3-0.1,1.8c0.6,0,1.1-0.1,1.7-0.1c0.5,0,1.1-0.1,1.7-0.1v1.9h-8.5v-1.5
					c0.9,0,1.6-0.2,2-0.6c0.4-0.4,0.7-0.9,0.8-1.5s0.2-1.3,0.2-2l0.8-20.2c0-0.6,0-1.2,0.1-1.8c0-0.6,0-1.2,0.1-1.7
					c-0.5,0-1.1,0-1.6,0.1c-0.5,0-1.1,0-1.6,0.1v-1.9h6.8l7.6,17.6c0.4,0.9,0.8,1.8,1.1,2.7c0.4,0.9,0.8,1.8,1.2,2.7
					c0.4,0.9,0.8,1.8,1.2,2.7h0.1c0.3-0.8,0.7-1.8,1.1-2.9c0.5-1.1,0.8-2.1,1.1-2.9c1.3-3.3,2.7-6.5,4.1-9.8
					c1.4-3.3,2.8-6.7,4.1-10.2h6.6v1.5c-0.7,0-1.4,0.1-1.8,0.4c-0.5,0.3-0.8,0.8-1,1.5s-0.3,1.7-0.2,2.9l1.2,20.2
					c0.1,0.5,0.1,1,0.1,1.5v1.3c0.5,0,1.1-0.1,1.6-0.1c0.5,0,1.1,0,1.6-0.1v1.9h-10v-1.5c0.9,0,1.6-0.2,2-0.7c0.4-0.4,0.7-1,0.8-1.8
					s0.1-1.7,0.1-2.8l-0.9-14.7c0-0.5-0.1-1-0.1-1.4c0-0.5-0.1-1-0.1-1.4c0-0.5-0.1-1-0.1-1.4c-0.1,0.2-0.2,0.4-0.3,0.7
					c-0.1,0.2-0.2,0.5-0.3,0.8l-10,24.7L312.3,75.8L312.3,75.8z"/>
				<path class="st0" d="M351.8,63.8c0-1.3-0.2-2.2-0.5-2.8c-0.4-0.6-0.9-0.9-1.7-1s-1.8-0.2-3.1-0.1l-3.2,0.1v10.2c0,0.8,0,1.5,0,2
					c0,0.6,0,1-0.1,1.4l8.5-0.1c1.3,0,2.4-0.2,3.4-0.6c1-0.4,1.7-1.1,2.2-2.1s0.8-2.4,0.8-4.1h1.5l-0.3,8.7h-22.9v-1.5
					c1.1-0.1,1.9-0.3,2.3-0.8c0.4-0.5,0.6-1.1,0.7-1.9c0-0.8,0.1-1.7,0.1-2.8V49.2c0-0.6,0-1.2,0-1.7s0.1-1,0.1-1.5
					c-0.5,0-1.1,0.1-1.6,0.1s-1.1,0.1-1.6,0.1v-2h21.4l0.2,7.8h-1.5c0-1.8-0.3-3.1-0.8-4s-1.2-1.5-2.1-1.8s-1.9-0.5-3-0.4l-3.8,0.1
					c-1.1,0-1.9,0.2-2.4,0.6c-0.5,0.4-0.8,1-0.9,1.7c-0.1,0.8-0.2,1.7-0.2,3v7.1l8.4,0l-0.3-3.8h2v9.3L351.8,63.8L351.8,63.8z"/>
				<path class="st0" d="M388.2,76.1l-17.7-23.8c-0.3-0.3-0.5-0.7-0.8-1s-0.5-0.7-0.8-1h0l0.1,19v2.2c0,0.7,0,1.5-0.1,2.2
					c0.5,0,1.1-0.1,1.6-0.1s1.1-0.1,1.6-0.1v1.9H364v-1.5c0.9,0,1.6-0.2,2-0.6c0.4-0.4,0.7-0.9,0.8-1.4c0.1-0.6,0.2-1,0.2-1.5
					l0-21.4v-3c-0.5,0-1,0.1-1.5,0.1c-0.5,0-1,0.1-1.5,0.1v-2h5.3L386,66.6c0.4,0.5,0.8,1,1.1,1.5s0.8,1,1.1,1.5h0l0-20.3
					c0-0.6,0-1.2,0-1.7s0.1-1,0.1-1.5c-0.5,0-1.1,0.1-1.6,0.1s-1.1,0.1-1.6,0.1v-2h8.2v1.5c-1.1,0-1.9,0.3-2.3,0.8
					c-0.4,0.5-0.6,1.1-0.7,1.9s0,1.7,0,2.8l-0.1,24.9L388.2,76.1L388.2,76.1z"/>
				<path class="st0" d="M421,53.6c0-1.8-0.2-3.2-0.5-4.3c-0.3-1.2-0.9-2-1.7-2.6c-0.8-0.6-2-0.8-3.5-0.8h-3.8l0,24.2
					c0,0.8,0,1.5,0,2.1c0,0.6,0,1.1-0.1,1.4c0.6,0,1.2-0.1,1.8-0.1c0.6,0,1.2-0.1,1.8-0.1v1.9h-10.4v-1.5c1.1-0.1,1.9-0.3,2.3-0.8
					s0.6-1.1,0.7-1.9c0-0.8,0.1-1.7,0.1-2.7l0-22.5l-4.6,0c-1.9,0-3.2,0.6-4,1.9c-0.8,1.2-1.1,3.2-1.1,5.8h-1.6l0.3-9.4h25.9
					l0.3,9.4L421,53.6L421,53.6z"/>
			</g>
			<g>
				<path class="st0" d="M113.6,88.7c-1.1,0-1.9,0.3-2.3,0.8c-0.4,0.5-0.7,1.1-0.7,1.9s-0.1,1.7-0.1,2.8v18.9c0,0.8,0,1.5,0,2.1
					c0,0.6-0.1,1.1-0.1,1.4c0.5,0,1.1-0.1,1.6-0.1s1.1-0.1,1.6-0.1v1.9h-10v-1.5c1.1-0.1,1.9-0.3,2.3-0.8s0.6-1.1,0.7-1.9
					c0-0.8,0.1-1.7,0.1-2.8V92.2c0-0.6,0-1.2,0-1.7c0-0.6,0.1-1,0.1-1.5c-0.5,0-1.1,0.1-1.6,0.1s-1.1,0.1-1.6,0.1v-1.9h10V88.7
					L113.6,88.7z"/>
				<path class="st0" d="M142.8,119.1l-17.7-23.8c-0.3-0.3-0.5-0.7-0.8-1c-0.2-0.3-0.5-0.7-0.8-1h0l0.1,19v2.2c0,0.7,0,1.5-0.1,2.2
					c0.5,0,1.1-0.1,1.6-0.1s1.1-0.1,1.6-0.1v1.9h-8.1v-1.5c0.9,0,1.6-0.2,2-0.6s0.7-0.9,0.8-1.4c0.1-0.6,0.2-1,0.2-1.5l0-21.4v-3
					c-0.5,0-1,0.1-1.5,0.1c-0.5,0-1,0.1-1.5,0.1v-1.9h5.3l16.6,22.3c0.4,0.5,0.8,1,1.1,1.5c0.4,0.5,0.8,1,1.1,1.5h0l0-20.3
					c0-0.6,0-1.2,0-1.7c0-0.6,0.1-1,0.1-1.5c-0.5,0-1.1,0.1-1.6,0.1s-1.1,0.1-1.6,0.1v-1.9h8.2v1.5c-1.1,0-1.9,0.3-2.3,0.8
					c-0.4,0.5-0.6,1.1-0.7,1.9s0,1.7,0,2.8l-0.1,24.9L142.8,119.1L142.8,119.1z"/>
				<path class="st0" d="M169.8,96.7c-0.1-1.4-0.4-2.8-1-4c-0.6-1.3-1.4-2.3-2.6-3.1s-2.6-1.2-4.3-1.2c-1.8,0-3.2,0.5-4.2,1.6
					c-1,1-1.5,2.2-1.5,3.6c0,1.2,0.4,2.3,1.1,3.1s1.6,1.6,2.8,2.2s2.4,1.2,3.6,1.8c1.1,0.5,2.2,1.1,3.4,1.6c1.1,0.6,2.1,1.2,3.1,2
					c0.9,0.7,1.6,1.6,2.2,2.6s0.8,2.2,0.8,3.7c0,1.6-0.4,3.1-1.2,4.3s-2,2.3-3.5,3c-1.5,0.7-3.4,1.1-5.6,1.1c-1.3,0-2.7-0.2-4.1-0.6
					c-1.4-0.4-2.7-0.9-3.8-1.7l0.2,1.9h-2.3l-0.3-9.5h1.7c0.1,2.6,1.1,4.6,2.7,5.9s3.7,2,6,2c1.2,0,2.2-0.2,3.2-0.6s1.8-1.1,2.3-1.9
					s0.9-1.8,0.9-3c0-1.3-0.4-2.4-1.1-3.3c-0.7-0.9-1.6-1.7-2.8-2.3c-1.1-0.7-2.3-1.3-3.6-1.9c-1.1-0.5-2.2-1-3.3-1.6
					s-2.1-1.2-3-1.9s-1.6-1.6-2.2-2.6c-0.6-1-0.8-2.2-0.8-3.6c0-0.8,0.1-1.6,0.4-2.5c0.3-0.9,0.7-1.7,1.4-2.6s1.6-1.5,2.8-2
					s2.7-0.8,4.5-0.8c1.1,0,2.4,0.2,3.8,0.5s2.7,0.9,3.9,1.8l-0.2-1.9h2.3v9.8L169.8,96.7L169.8,96.7z"/>
				<path class="st0" d="M200.8,96.6c0-1.8-0.2-3.2-0.5-4.3c-0.3-1.2-0.9-2-1.7-2.6c-0.8-0.6-2-0.8-3.5-0.8h-3.8l0,24.2
					c0,0.8,0,1.5,0,2.1c0,0.6-0.1,1.1-0.1,1.4c0.6,0,1.2-0.1,1.8-0.1c0.6,0,1.2-0.1,1.8-0.1v1.9h-10.4v-1.5c1.1-0.1,1.9-0.3,2.3-0.8
					s0.6-1.1,0.7-1.9c0.1-0.8,0.1-1.7,0.1-2.7l0-22.5l-4.6,0c-1.9,0-3.2,0.6-3.9,1.9c-0.8,1.2-1.1,3.2-1.1,5.8h-1.6l0.3-9.4h25.9
					l0.3,9.4L200.8,96.6L200.8,96.6z"/>
				<path class="st0" d="M216,88.7c-1.1,0-1.9,0.3-2.3,0.8c-0.4,0.5-0.7,1.1-0.7,1.9s-0.1,1.7-0.1,2.8v18.9c0,0.8,0,1.5,0,2.1
					c0,0.6-0.1,1.1-0.1,1.4c0.5,0,1.1-0.1,1.6-0.1s1.1-0.1,1.6-0.1v1.9h-10v-1.5c1.1-0.1,1.9-0.3,2.3-0.8s0.6-1.1,0.7-1.9
					c0-0.8,0.1-1.7,0.1-2.8V92.2c0-0.6,0-1.2,0-1.7c0-0.6,0.1-1,0.1-1.5c-0.5,0-1.1,0.1-1.6,0.1s-1.1,0.1-1.6,0.1v-1.9h10L216,88.7
					L216,88.7z"/>
				<path class="st0" d="M244.1,96.6c0-1.8-0.2-3.2-0.5-4.3c-0.3-1.2-0.9-2-1.7-2.6c-0.8-0.6-2-0.8-3.5-0.8h-3.8l0,24.2
					c0,0.8,0,1.5,0,2.1c0,0.6-0.1,1.1-0.1,1.4c0.6,0,1.2-0.1,1.8-0.1c0.6,0,1.2-0.1,1.8-0.1v1.9h-10.4v-1.5c1.1-0.1,1.9-0.3,2.3-0.8
					s0.6-1.1,0.7-1.9c0.1-0.8,0.1-1.7,0.1-2.7l0-22.5l-4.6,0c-1.9,0-3.2,0.6-3.9,1.9c-0.8,1.2-1.1,3.2-1.1,5.8h-1.6l0.3-9.4h25.9
					l0.3,9.4L244.1,96.6L244.1,96.6z"/>
				<path class="st0" d="M258.1,88.7c-1,0-1.7,0.2-2.1,0.6c-0.4,0.4-0.7,0.9-0.8,1.4c-0.1,0.6-0.1,1-0.1,1.4v11.2
					c0,1.7,0.1,3.3,0.3,4.8c0.2,1.6,0.6,2.9,1.3,4.2c0.6,1.2,1.5,2.2,2.8,3s2.8,1.1,4.8,1.1c2.1,0,3.9-0.5,5.2-1.5s2.3-2.4,3-4.2
					s1-3.8,1-6.1l0.1-12.5c0-0.6,0-1.2,0-1.7c0-0.6,0.1-1,0.1-1.5c-0.5,0-1.1,0.1-1.6,0.1s-1,0.1-1.6,0.1v-1.9h8.3v1.5
					c-1.1,0-1.9,0.3-2.3,0.8c-0.4,0.5-0.7,1.1-0.7,1.9c0,0.8-0.1,1.7-0.1,2.8l-0.1,10.3c0,1.9-0.2,3.8-0.6,5.5s-1.1,3.3-2,4.7
					c-0.9,1.4-2.2,2.4-3.7,3.2s-3.4,1.2-5.6,1.2c-2.4,0-4.4-0.3-6-0.9c-1.6-0.6-2.9-1.6-3.9-2.9c-1-1.3-1.6-2.9-2.1-4.9
					c-0.4-2-0.6-4.3-0.6-7.1v-9c0-0.8,0-1.7,0.1-2.7c0-1.1,0.1-1.9,0.1-2.4c-0.5,0-1.1,0.1-1.6,0.1c-0.5,0-1.1,0-1.6,0.1v-1.9h10
					L258.1,88.7L258.1,88.7z"/>
				<path class="st0" d="M305.9,96.6c0-1.8-0.2-3.2-0.5-4.3c-0.3-1.2-0.9-2-1.7-2.6s-2-0.8-3.5-0.8h-3.8l0,24.2c0,0.8,0,1.5,0,2.1
					c0,0.6,0,1.1-0.1,1.4c0.6,0,1.2-0.1,1.8-0.1c0.6,0,1.2-0.1,1.8-0.1v1.9h-10.4v-1.5c1.1-0.1,1.9-0.3,2.3-0.8s0.6-1.1,0.7-1.9
					c0-0.8,0.1-1.7,0.1-2.7l0-22.5l-4.6,0c-1.9,0-3.2,0.6-4,1.9c-0.8,1.2-1.1,3.2-1.1,5.8h-1.6l0.3-9.4h25.9l0.3,9.4L305.9,96.6
					L305.9,96.6z"/>
				<path class="st0" d="M326.5,106.8c0-1.3-0.2-2.2-0.5-2.8c-0.4-0.6-0.9-0.9-1.7-1s-1.8-0.2-3.1-0.1l-3.2,0.1v10.2
					c0,0.8,0,1.5,0,2c0,0.6,0,1-0.1,1.4l8.5-0.1c1.3,0,2.4-0.2,3.4-0.6c1-0.4,1.7-1.1,2.2-2.1s0.8-2.4,0.8-4.1h1.5l-0.3,8.7h-22.9
					v-1.5c1.1-0.1,1.9-0.3,2.3-0.8c0.4-0.5,0.6-1.1,0.7-1.9c0-0.8,0.1-1.7,0.1-2.8V92.2c0-0.6,0-1.2,0-1.7c0-0.6,0.1-1,0.1-1.5
					c-0.5,0-1.1,0.1-1.6,0.1s-1.1,0.1-1.6,0.1v-1.9h21.4l0.2,7.8h-1.5c0-1.8-0.3-3.1-0.8-4s-1.2-1.5-2.1-1.8s-1.9-0.4-3-0.4
					l-3.8,0.1c-1.1,0-1.9,0.2-2.4,0.6c-0.5,0.4-0.8,0.9-0.9,1.7c-0.1,0.8-0.2,1.7-0.2,2.9v7.1l8.4,0l-0.3-3.8h2v9.3L326.5,106.8
					L326.5,106.8z"/>
			</g>
		</g>
		<g>
			<path class="st0" d="M39.1,59.8L0,32.4V12.6c2.4,0,4.8,0,7.2,0l31.4,44.9l0,0C38.6,58.3,38.8,59,39.1,59.8
				C39.2,60.2,39.2,60.2,39.1,59.8L39.1,59.8z"/>
			<path class="st0" d="M39.5,54.2c-0.4,0.7-0.7,1.4-0.8,2.1L18.5,12.9c1.2,0.1,2.5,0.2,3.7,0.3c4.7,0.4,9.3,1,13.9,2L39.5,54.2
				L39.5,54.2z"/>
			<path class="st0" d="M41,62.4L0,58.9V42.3l39.5,18.5C39.9,61.4,40.4,62,41,62.4z"/>
			<path class="st0" d="M59.6,14.2L42,51.9l0,0c-0.7,0.4-1.3,0.8-1.8,1.4l3.2-36.1c0.2,0,0.3,0.1,0.5,0.2c0.4,0.1,0.7,0.2,1.1,0.2
				s0.8-0.1,1.1-0.2C50.6,15.9,55.1,14.9,59.6,14.2L59.6,14.2z"/>
			<path class="st0" d="M90,12.6v7.3L45.2,51.1l0,0c-0.1,0-0.2,0-0.2,0c-0.7,0-1.3,0.1-2,0.3l26.9-38.4C76.5,12.6,83.3,12.6,90,12.6
				L90,12.6z"/>
			<path class="st0" d="M90,30.9v17.6l-41.5,3.6l0,0c-0.6-0.4-1.3-0.7-2.1-0.9L90,30.9L90,30.9z"/>
			<path class="st0" d="M49.3,52.8c1.2,1.2,2,2.8,2,4.7c0,2.5-1.4,4.6-3.5,5.7c-0.5-1.3-0.8-2.6-1-3.8c0.5-0.5,0.8-1.1,0.8-1.9
				c0-1.5-1.2-2.7-2.7-2.7s-2.7,1.2-2.7,2.7c0,0.7,0.3,1.4,0.7,1.8c-0.2,1-0.4,2.1-0.8,3.2c0,0.2-0.1,0.3-0.2,0.5l-0.2,0L0,66.7
				v23.5c0,6.2,2.8,12.1,7,17.5c4.2,5.4,9.8,10.2,15.5,14.3c5.6,4.1,11.3,7.4,15.5,9.7c4.2,2.3,7,3.5,7,3.5s2.8-1.3,7-3.5
				c4.2-2.3,9.9-5.6,15.5-9.7c5.6-4.1,11.3-8.9,15.5-14.3c4.2-5.4,7-11.3,7-17.5V56.4L49.3,52.8L49.3,52.8z M45.2,117.3
				C45.2,117.3,45.2,117.3,45.2,117.3L45.2,117.3c-6.9-1.4-6.4-3.8-6.4-3.8h12.8C51.6,113.5,52.1,115.9,45.2,117.3L45.2,117.3z
				 M54.4,112.3H35.5v-7.6h18.9V112.3z M52.1,103.8H37.9c0,0,1.8-16.3-7.9-22.3c7.9-6.9,13.8-17,14-24v28.3
				c-0.8,0.4-1.4,1.2-1.4,2.2c0,1.3,1.1,2.5,2.4,2.5s2.4-1.1,2.4-2.5c0-1-0.6-1.8-1.5-2.2V57.5c0.2,7.1,6.1,17.1,14,24
				C50.2,87.5,52,103.8,52.1,103.8z"/>
			<path class="st0" d="M41.9,63c0,0,0.1,0.1,0.2,0.1c0,0,0-0.1,0-0.1C42.1,63,41.9,63,41.9,63z"/>
			<path class="st0" d="M90,0v8.4c-5.7,0-11.4,0-17.1,0.3c-3.8,0.2-7.5,0.5-11.3,1l0,0c-5.2,0.7-10.4,1.8-15.5,3.5
				c-0.4,0.1-0.8,0.2-1.1,0.2s-0.8-0.1-1.1-0.2c-0.1,0-0.1,0-0.2-0.1c-2.6-0.9-5.3-1.6-7.9-2.1c-4.5-1-9-1.6-13.5-2
				c-1.9-0.2-3.8-0.3-5.8-0.4c-1.7-0.1-3.4-0.1-5-0.2C7.6,8.4,3.8,8.4,0,8.4V0c7.4,0,14.9,0,22.2,0.7C26.5,1,30.8,1.6,35,2.5
				c3,0.6,5.9,1.4,8.9,2.3c0.2,0.1,0.3,0.1,0.5,0.1c0.2,0,0.4,0,0.6,0c0.4,0,0.8-0.1,1.1-0.2c7.1-2.3,14.3-3.5,21.7-4.2
				C75.1,0,82.6,0,90,0L90,0z"/>
		</g>
	</g>
</g>
</svg>
