<svg xmlns="http://www.w3.org/2000/svg" width="20.755" height="15.995" viewBox="1041.129 154 20.755 15.995"><g data-name="CompositeLayer"><path d="M1049.724 158.413a.65.65 0 0 0-.98.557v6.054a.65.65 0 0 0 .98.558l5.076-3.023a.65.65 0 0 0 0-1.115l-5.076-3.03Zm.317 5.47v-3.77l3.16 1.887-3.16 1.883Z" fill="#3d54a1" fill-rule="evenodd" data-name="Path 8"/><path d="M1058.342 154.448c-4.024-.597-9.645-.597-13.67 0-1.611.239-2.88 1.503-3.157 3.145-.515 3.046-.515 5.763 0 8.808.277 1.643 1.546 2.906 3.156 3.145 2.017.299 4.431.449 6.845.449 2.41 0 4.818-.15 6.827-.448 1.608-.239 2.876-1.503 3.154-3.145.516-3.046.516-5.764 0-8.81-.276-1.64-1.545-2.905-3.155-3.144Zm1.876 11.738c-.184 1.086-1.014 1.922-2.066 2.077-3.908.58-9.373.58-13.29 0-1.054-.157-1.885-.992-2.068-2.078-.497-2.935-.497-5.44 0-8.377.184-1.086 1.014-1.92 2.068-2.077 1.956-.29 4.3-.435 6.644-.435 2.344 0 4.688.145 6.645.435 1.053.156 1.884.99 2.067 2.077.497 2.937.497 5.442 0 8.378Z" fill="#3d54a1" fill-rule="evenodd" data-name="Path 9"/></g></svg>